<svg xmlns="http://www.w3.org/2000/svg" xmlns:svg="http://www.w3.org/2000/svg" id="Layer_1" x="0" y="0" version="1.1" viewBox="0 0 400 140" xml:space="preserve" style="enable-background:new 0 0 400 140"><metadata id="metadata19"/><style id="style2" type="text/css">.st0{fill:#939393}.st1{fill:#c2c2c2}.st4{fill:#2f2f2f}</style><g id="g12"><g id="g10"><g id="g5477" transform="translate(3.3,1)"><path id="path825" d="M -2.5530562,-0.67848801 H 399.60396 V 140.20047 H -2.5530562 Z" style="fill:#f2f2f2;fill-opacity:1;fill-rule:nonzero;stroke:none"/><path id="path5473" d="m 136.6,53.6 c 4,-2 8.2,-3 12.6,-3 1.6,0 3.1,0.1 4.6,0.4 1.5,0.2 3,0.6 4.4,1.2 1.3,-2.3 2.9,-4.5 4.8,-6.4 1.9,-1.9 4,-3.6 6.2,-5.1 2.3,-1.5 4.6,-2.7 7.2,-3.6 2.5,-0.9 5.1,-1.6 7.8,-1.9 -0.5,-2.3 -1.3,-4.4 -2.4,-6.4 -1.2,-2 -2.6,-3.7 -4.3,-5.1 -1.7,-1.4 -3.7,-2.5 -5.8,-3.3 -2.2,-0.8 -4.4,-1.2 -6.7,-1.2 -2.5,0 -4.9,0.5 -7.2,1.4 -2.3,0.9 -4.3,2.2 -6,3.8 -1.7,1.6 -3.2,3.5 -4.3,5.7 -1.1,2.2 -1.8,4.6 -2,7.1 -1.2,-0.7 -2.5,-1.2 -3.9,-1.7 -1.4,-0.4 -2.7,-0.6 -4.2,-0.6 -2.2,0 -4.2,0.4 -6.1,1.2 -1.9,0.8 -3.6,1.9 -5,3.4 -1.4,1.4 -2.6,3.1 -3.4,5 -0.8,1.9 -1.2,3.9 -1.2,6.1 0,2.2 0.4,4.3 1.3,6.3 0.9,2 2.1,3.7 3.8,5.3 2.5,-3.7 5.8,-6.6 9.8,-8.6 z" class="st0" style="fill:#939393"/></g><g id="layer1"><g style="enable-background:new 0 0 400 140" id="g6"><path id="path4" d="M222.4,68.2c0,0-0.1,0-0.1-0.1c-1.9-0.7-3.9-1.1-6-1.1c-0.5-3.2-1.5-6.2-3-8.9c-1.5-2.7-3.4-5.1-5.7-7.1 c-2.3-2-4.9-3.6-7.8-4.7c-2.9-1.1-6-1.7-9.3-1.7c-3,0-5.9,0.5-8.6,1.5c-2.7,1-5.2,2.3-7.4,4c-2.2,1.7-4.1,3.8-5.8,6.2 c-1.6,2.4-2.8,5-3.5,7.9c-1.7-1.5-3.6-2.6-5.7-3.4c-2.1-0.8-4.2-1.2-6.5-1.2c-2.6,0-5,0.5-7.3,1.5c-2.3,1-4.3,2.3-6,4 c-1.7,1.7-3,3.7-4,6c-1,2.3-1.5,4.7-1.5,7.3c0,2.6,0.5,5,1.5,7.3c1,2.3,2.3,4.3,4,6c1.7,1.7,3.7,3,6,4c2.3,1,4.7,1.5,7.3,1.5h54.4 c-0.5-1.9-0.7-3.9-0.7-6C206.8,80.6,213.3,71.8,222.4,68.2z" class="st1"/></g><path id="path8" d="M231.2,70.2c-11.5,0-20.8,9.3-20.8,20.8s9.3,20.8,20.8,20.8c11.5,0,20.8-9.3,20.8-20.8S242.7,70.2,231.2,70.2 z M246.3,95.2c-0.1-0.2-0.2-0.5-0.4-0.8c-0.2-0.3-0.4-0.8-0.8-1.3c0-0.1,0-0.2,0.1-0.4c0-0.2,0.1-0.3,0.1-0.5c0-0.2,0-0.3,0-0.5 c0-0.2,0-0.3-0.1-0.4c-0.4,0-0.7-0.1-1.1-0.2c-0.4-0.1-0.7-0.3-1-0.5l0.1-0.1c-0.2,0-0.4,0.1-0.5,0.2c-0.2,0.1-0.4,0.1-0.5,0.2 c-0.2,0.1-0.3,0.1-0.5,0.2c-0.2,0-0.4,0.1-0.6,0.1l-0.3,0l0.1-0.1c-0.2,0.1-0.4,0.1-0.6,0.2c-0.2,0.1-0.4,0.1-0.6,0.1 c-0.1,0-0.3,0-0.6-0.1c-0.3-0.1-0.5-0.2-0.8-0.4c-0.3-0.1-0.5-0.3-0.7-0.5c-0.2-0.2-0.3-0.3-0.3-0.5l0-0.1 c-0.1-0.1-0.2-0.2-0.3-0.2c-0.1-0.1-0.2-0.1-0.3-0.2c-0.1-0.1-0.2-0.1-0.3-0.2c-0.1-0.1-0.1-0.2-0.1-0.3l0.2-0.2l-0.5-0.1 l-0.2-0.6c0,0.1,0.1,0.1,0.2,0.1c0.1,0,0.2,0,0.2-0.1l-0.7-0.4l0.5-1.3c-0.2-0.7-0.2-1.3-0.1-1.7c0.1-0.4,0.3-0.7,0.5-1 s0.6-0.5,0.9-0.7c0.4-0.2,0.7-0.6,1-1l-0.1-0.2l1.4-1.7l0.3,0c0.4,0,0.8,0,1.3-0.1c0.5,0,1-0.1,1.5-0.1c0.5-0.1,1-0.1,1.5-0.2 c0.4-0.1,0.8-0.1,1.2-0.2c2.7,3.2,4.3,7.3,4.3,11.8c0,3.6-1.1,7-2.9,9.9c-0.2-0.4-0.3-0.7-0.5-1.1c-0.2-0.4-0.2-0.9-0.2-1.3 c0-0.5,0-0.9,0.1-1.2c0-0.3,0.1-0.6,0.1-0.8c0-0.2,0.1-0.4,0.1-0.6C246.4,95.6,246.4,95.4,246.3,95.2z M228.2,106.1 c-0.1,0.3-0.2,0.7-0.4,1.1c-0.2,0.4-0.4,0.7-0.6,1c-0.2,0.3-0.3,0.5-0.5,0.7c-1.6-0.4-3.1-1-4.5-1.8c0-0.2,0-0.5,0-0.7 c0.1-0.3,0.1-0.6,0.2-0.9c0.1-0.3,0.2-0.6,0.3-0.9c0.1-0.3,0.1-0.6,0.1-0.9c0-0.4-0.1-0.9-0.2-1.4c-0.1-0.5-0.3-1-0.5-1.5 c-0.2-0.5-0.4-1-0.6-1.5s-0.4-0.9-0.6-1.4c-0.2-0.4-0.3-0.8-0.3-1.2c-0.1-0.4,0-0.7,0.1-1l-0.3-0.1c0.1-0.2,0.2-0.4,0.3-0.6 c0.1-0.2,0.3-0.4,0.4-0.5c0.1-0.2,0.3-0.4,0.4-0.6c0.1-0.2,0.1-0.4,0.1-0.6c0-0.1,0-0.3-0.1-0.4c-0.1-0.2-0.1-0.3-0.1-0.4l0.4,0.1 c0.2-0.5,0.6-0.9,1-1.1c0.4-0.2,0.9-0.3,1.5-0.3c0.1,0,0.2,0,0.4,0.1c0.2,0.1,0.5,0.1,0.7,0.2c0.2,0.1,0.5,0.2,0.7,0.2 c0.2,0.1,0.4,0.1,0.5,0.2c0,0.1,0.1,0.2,0.2,0.2c0.1,0,0.2,0.1,0.2,0.1l0,0.2c0,0,0.1,0.1,0.3,0.2c0.2,0.1,0.3,0.2,0.5,0.3 c0.2,0.1,0.3,0.2,0.5,0.3c0.1,0.1,0.2,0.2,0.3,0.2c0.2,0,0.6,0.1,1,0.2c0.4,0.2,0.9,0.4,1.4,0.6c0.5,0.3,1,0.6,1.5,0.9 c0.5,0.3,1,0.7,1.4,1c0.4,0.4,0.8,0.7,1,1c0.3,0.3,0.4,0.6,0.4,0.9l-0.7,0.7c0.1,0.7,0,1.2-0.2,1.6c-0.2,0.4-0.4,0.7-0.7,0.9 c-0.3,0.2-0.7,0.4-1.1,0.6c-0.4,0.2-0.9,0.4-1.3,0.7c0,0.3-0.1,0.6-0.2,0.9s-0.3,0.6-0.5,0.9c-0.2,0.3-0.5,0.5-0.7,0.7 c-0.3,0.2-0.6,0.3-0.9,0.3l-0.9-0.7c0,0,0,0.1,0,0.2c0,0.1-0.1,0.1-0.1,0C228.2,105.4,228.3,105.7,228.2,106.1z M219.1,92.2 C219.2,92.3,219.2,92.3,219.1,92.2l-0.8-1.2c-0.4,0-0.9-0.1-1.4-0.2c-0.5-0.1-1-0.3-1.5-0.5c-0.5-0.2-1-0.4-1.4-0.7 c-0.4-0.2-0.7-0.4-1.1-0.7c0.5-4.4,2.5-8.3,5.5-11.2c0.3,0,0.5,0.1,0.6,0.2c0.2,0.2,0.4,0.4,0.5,0.6c0.2,0.2,0.3,0.4,0.5,0.6 c0.2,0.2,0.4,0.3,0.7,0.3l0.3-0.2l0-0.5l0.7-1l-0.5-1.5c0.1,0,0.2-0.1,0.3-0.2c0.1-0.1,0.3-0.1,0.3-0.1c0.4,0,0.7,0,1,0.1 c0.2,0,0.4,0.1,0.6,0.2c0.2,0.1,0.3,0.3,0.4,0.5c0.1,0.2,0.3,0.5,0.6,0.8l0.7-0.6c0.1,0.1,0.4,0.1,0.7,0.3 c0.3,0.1,0.6,0.3,0.9,0.5c0.3,0.2,0.6,0.4,0.8,0.5c0.2,0.2,0.4,0.4,0.4,0.5c0,0.2-0.1,0.4-0.2,0.5c-0.2,0.1-0.4,0.2-0.6,0.3 c-0.2,0.1-0.5,0.1-0.8,0.2c-0.3,0-0.5,0.1-0.8,0.2c-0.2,0.1-0.4,0.1-0.6,0.2c-0.2,0.1-0.2,0.2-0.2,0.3l1.2,0.4 c-0.3,0.2-0.6,0.5-0.9,0.7c-0.3,0.2-0.7,0.4-1,0.5l0.1,0.4l-1.9,0.7v0.6l-0.1,0.1l0.1-0.7l-0.1,0c-0.1,0-0.2,0-0.2,0.1 c0,0,0,0.1,0,0.1c0,0.1,0,0.1,0.1,0.2c0,0.1,0,0.1,0,0.1l-0.3-0.1l0,0.1c0,0,0,0.1,0.1,0.2c0,0.1,0.1,0.2,0.2,0.2 c0.1,0.1,0.1,0.2,0.2,0.3c0,0,0,0.1-0.1,0.1c-0.1,0-0.1,0.1-0.2,0.1c-0.1,0-0.1,0-0.2,0.1c0,0,0,0,0,0c0.2,0,0.2,0,0.1,0 c-0.1,0-0.3,0.1-0.5,0.2c-0.2,0.1-0.4,0.3-0.7,0.5c-0.2,0.2-0.3,0.5-0.3,0.9c0,0.2,0,0.5,0,0.7c0,0.2,0,0.4,0,0.7 c-0.2-0.5-0.5-0.9-0.9-1.2c-0.4-0.3-0.9-0.4-1.4-0.4l-0.9,0.1l0.4,0.3c-0.2,0-0.5-0.1-0.7-0.1c-0.3,0-0.5,0-0.8,0 c-0.2,0-0.5,0.1-0.7,0.2c-0.2,0.1-0.4,0.2-0.6,0.4l-0.1,0.9c0,0.4,0.1,0.8,0.3,1.1c0.2,0.3,0.5,0.4,1,0.4c0.4,0,0.8-0.1,1.2-0.2 c0.4-0.1,0.8-0.3,1.2-0.4c-0.1,0.3-0.3,0.6-0.4,0.9c-0.2,0.3-0.3,0.6-0.3,0.9l0.3,0.1c0.3-0.2,0.6-0.3,0.9-0.1 c0.3,0.2,0.5,0.4,0.8,0.7c0.3,0.3,0.5,0.6,0.8,0.9c0.3,0.3,0.6,0.5,0.9,0.7l-0.7,0.4l-1.7-0.9C219.1,92,219.1,92.1,219.1,92.2z M239.4,75.1c-0.4-0.2-0.7-0.3-1.1-0.3v-0.2l0.9-0.1c1.1,0.5,2.2,1.2,3.2,2c-0.1,0.1-0.3,0.1-0.4,0.2c-0.2,0.1-0.4,0.2-0.7,0.4 c-0.2,0.1-0.4,0.3-0.5,0.5c-0.1,0.2-0.2,0.4-0.2,0.6l0.1,0.4c-0.2,0.4-0.5,0.7-0.8,0.8c-0.3,0.1-0.6,0.2-0.9,0.2c-0.3,0-0.7,0-1,0 c-0.3,0-0.7,0-1,0.2l-0.3-0.7l0.3-1.2l-0.4-0.5l3.6-1.1C240,75.6,239.8,75.3,239.4,75.1z" class="st4" style="enable-background:new 0 0 400 140;fill:#0078d4;fill-opacity:1"/></g></g></g></svg>