<svg xmlns="http://www.w3.org/2000/svg" xmlns:svg="http://www.w3.org/2000/svg" id="Layer_1" x="0" y="0" version="1.1" viewBox="0 0 400 140" xml:space="preserve" style="enable-background:new 0 0 400 140"><metadata id="metadata41"/><style id="style2" type="text/css">.st0{fill:#0078d4}.st1{fill:#939393}.st2{fill:#c2c2c2}.st3{fill:#fff;stroke:#fff;stroke-width:1.5307;stroke-linecap:square;stroke-miterlimit:8}</style><path id="path4555" d="M -0.37428796,-0.86201386 H 401.78274 V 140.01695 H -0.37428796 Z" style="fill:#f2f2f2;fill-opacity:1;fill-rule:nonzero;stroke:none"/><circle id="circle4" cx="239.8" cy="95.2" r="30" class="st0"/><g id="g10"><path id="path6" d="M136.4,57.9c4-2,8.2-3,12.6-3c1.6,0,3.1,0.1,4.6,0.4c1.5,0.2,3,0.6,4.4,1.2c1.3-2.3,2.9-4.5,4.8-6.4 c1.9-1.9,4-3.6,6.2-5.1c2.3-1.5,4.6-2.7,7.2-3.6c2.5-0.9,5.1-1.6,7.8-1.9c-0.5-2.3-1.3-4.4-2.4-6.4c-1.2-2-2.6-3.7-4.3-5.1 c-1.7-1.4-3.7-2.5-5.8-3.3c-2.2-0.8-4.4-1.2-6.7-1.2c-2.5,0-4.9,0.5-7.2,1.4c-2.3,0.9-4.3,2.2-6,3.8c-1.7,1.6-3.2,3.5-4.3,5.7 c-1.1,2.2-1.8,4.6-2,7.1c-1.2-0.7-2.5-1.2-3.9-1.7c-1.4-0.4-2.7-0.6-4.2-0.6c-2.2,0-4.2,0.4-6.1,1.2c-1.9,0.8-3.6,1.9-5,3.4 c-1.4,1.4-2.6,3.1-3.4,5c-0.8,1.9-1.2,3.9-1.2,6.1c0,2.2,0.4,4.3,1.3,6.3c0.9,2,2.1,3.7,3.8,5.3C129.2,62.7,132.4,59.9,136.4,57.9z" class="st1"/><path id="path8" d="M216.4,70.6c-0.3,0-0.6,0-1,0c-0.5-3.4-1.5-6.5-3.1-9.4c-1.6-2.9-3.6-5.4-6-7.5c-2.4-2.1-5.1-3.8-8.2-4.9 c-3.1-1.2-6.3-1.8-9.8-1.8c-3.2,0-6.2,0.5-9,1.5c-2.8,1-5.4,2.4-7.8,4.2c-2.3,1.8-4.4,4-6.1,6.5c-1.7,2.5-2.9,5.3-3.7,8.3 c-1.8-1.6-3.8-2.8-6-3.6c-2.2-0.8-4.4-1.3-6.8-1.3c-2.7,0-5.3,0.5-7.7,1.5c-2.4,1-4.5,2.4-6.3,4.2c-1.8,1.8-3.2,3.9-4.2,6.3 c-1,2.4-1.5,4.9-1.5,7.7c0,2.7,0.5,5.3,1.5,7.7c1,2.4,2.4,4.5,4.2,6.3c1.8,1.8,3.9,3.2,6.3,4.2c2.4,1,4.9,1.5,7.7,1.5h57.5 c-0.5-2.2-0.7-4.5-0.7-6.8C205.8,85.5,209.9,76.8,216.4,70.6z" class="st2"/></g><g id="g34"><polyline id="polyline12" points="261.4 89.2 261.4 105.1 218.3 105.1 218.3 89.2 226.6 82.9 226.6 89.2 235.8 82.9 235.8 89.2 261.4 89.2" class="st3"/><rect id="rect14" width="41.2" height="14.4" x="219.2" y="90.1" class="st0"/><polyline id="polyline16" points="252.1 89.2 249.9 77.9 248.1 77.9 246.3 89.2" class="st3"/><polyline id="polyline18" points="259.6 89.2 257.4 77.9 255.5 77.9 253.7 89.2" class="st3"/><polyline id="polyline20" points="224.5 94 222.2 94 222.2 96.3 224.5 96.3 224.5 94" class="st3"/><polyline id="polyline22" points="232.6 94 230.5 94 230.5 96.3 232.6 96.3 232.6 94" class="st3"/><polyline id="polyline24" points="240.9 94 238.8 94 238.8 96.3 240.9 96.3 240.9 94" class="st3"/><polyline id="polyline26" points="249.2 94 246.9 94 246.9 96.3 249.2 96.3 249.2 94" class="st3"/><polyline id="polyline28" points="257.4 94 255.3 94 255.3 96.3 257.4 96.3 257.4 94" class="st3"/><polyline id="polyline30" points="219.2 90.1 225.4 85.9 225.4 90.1 227.7 90.1" class="st0"/><polyline id="polyline32" points="228.3 90.1 234.5 85.9 234.5 90.1 236.8 90.1" class="st0"/></g></svg>