<svg xmlns="http://www.w3.org/2000/svg" xmlns:svg="http://www.w3.org/2000/svg" id="Layer_1" x="0" y="0" version="1.1" viewBox="0 0 400 140" xml:space="preserve" style="enable-background:new 0 0 400 140"><metadata id="metadata5512"/><style id="style5471" type="text/css">.st0{fill:#939393}.st1{fill:#c2c2c2}.st2{fill:#0078d4}.st3{stroke:#fff;stroke-miterlimit:10}.st3,.st4{fill:#f2f2f2}</style><path id="path832" d="M 0.3299412,0.54643183 H 402.48696 V 141.42539 H 0.3299412 Z" style="fill:#f2f2f2;fill-opacity:1;fill-rule:nonzero;stroke:none"/><g id="g5477"><path id="path5473" d="M136.6,53.6c4-2,8.2-3,12.6-3c1.6,0,3.1,0.1,4.6,0.4c1.5,0.2,3,0.6,4.4,1.2c1.3-2.3,2.9-4.5,4.8-6.4 c1.9-1.9,4-3.6,6.2-5.1c2.3-1.5,4.6-2.7,7.2-3.6c2.5-0.9,5.1-1.6,7.8-1.9c-0.5-2.3-1.3-4.4-2.4-6.4c-1.2-2-2.6-3.7-4.3-5.1 c-1.7-1.4-3.7-2.5-5.8-3.3c-2.2-0.8-4.4-1.2-6.7-1.2c-2.5,0-4.9,0.5-7.2,1.4c-2.3,0.9-4.3,2.2-6,3.8c-1.7,1.6-3.2,3.5-4.3,5.7 c-1.1,2.2-1.8,4.6-2,7.1c-1.2-0.7-2.5-1.2-3.9-1.7c-1.4-0.4-2.7-0.6-4.2-0.6c-2.2,0-4.2,0.4-6.1,1.2c-1.9,0.8-3.6,1.9-5,3.4 c-1.4,1.4-2.6,3.1-3.4,5c-0.8,1.9-1.2,3.9-1.2,6.1c0,2.2,0.4,4.3,1.3,6.3c0.9,2,2.1,3.7,3.8,5.3C129.3,58.5,132.6,55.6,136.6,53.6z" class="st0"/><path id="path5475" d="M216.6,66.3c-0.3,0-0.6,0-1,0c-0.5-3.4-1.5-6.5-3.1-9.4c-1.6-2.9-3.6-5.4-6-7.5c-2.4-2.1-5.1-3.8-8.2-4.9 c-3.1-1.2-6.3-1.8-9.8-1.8c-3.2,0-6.2,0.5-9,1.5c-2.8,1-5.4,2.4-7.8,4.2c-2.3,1.8-4.4,4-6.1,6.5c-1.7,2.5-2.9,5.3-3.7,8.3 c-1.8-1.6-3.8-2.8-6-3.6c-2.2-0.8-4.4-1.3-6.8-1.3c-2.7,0-5.3,0.5-7.7,1.5c-2.4,1-4.5,2.4-6.3,4.2c-1.8,1.8-3.2,3.9-4.2,6.3 c-1,2.4-1.5,4.9-1.5,7.7c0,2.7,0.5,5.3,1.5,7.7c1,2.4,2.4,4.5,4.2,6.3c1.8,1.8,3.9,3.2,6.3,4.2c2.4,1,4.9,1.5,7.7,1.5h57.5 c-0.5-2.2-0.7-4.5-0.7-6.8C206,81.3,210.1,72.5,216.6,66.3z" class="st1"/></g><circle id="circle5479" cx="240" cy="90.9" r="30" class="st2"/><g id="g5505"><g id="g5503"><line id="line5481" x1="227" x2="227" y1="101.1" y2="86" class="st3"/><line id="line5483" x1="253" x2="253" y1="101.1" y2="86" class="st3"/><line id="line5485" x1="248.7" x2="248.7" y1="101.1" y2="86" class="st3"/><line id="line5487" x1="244.4" x2="244.4" y1="101.1" y2="86" class="st3"/><line id="line5489" x1="240" x2="240" y1="101.1" y2="86" class="st3"/><line id="line5491" x1="235.7" x2="235.7" y1="101.1" y2="86" class="st3"/><line id="line5493" x1="231.4" x2="231.4" y1="101.1" y2="86" class="st3"/><polyline id="polyline5495" points="240 74.6 245.3 74.6 245.3 71.7 240.2 71.7" class="st4"/><rect id="rect5497" width=".6" height="6" x="239.6" y="71.7" class="st4"/><polyline id="polyline5499" points="248 81.3 257.4 86 222.7 86 240 77.5 248 81.3" class="st4"/><polyline id="polyline5501" points="224.8 103.7 223.8 106.5 256.3 106.5 254.1 101 225.9 101 224.8 103.7" class="st4"/></g></g></svg>