<svg xmlns="http://www.w3.org/2000/svg" xmlns:ev="http://www.w3.org/2001/xml-events" xmlns:xlink="http://www.w3.org/1999/xlink" width="625.766" height="384.42" class="st33" color-interpolation-filters="sRGB" viewBox="0 0 469.325 288.316" xml:space="preserve"><style type="text/css">.st1{fill:#f9c499;stroke:none}.st1,.st2{stroke-linecap:butt;stroke-width:.448023}.st2,.st3{stroke:none}.st2{fill:#d83b01}.st3{fill:none;stroke-linecap:round;stroke-linejoin:round;stroke-width:.75}.st4{fill:#3f3f3f;font-family:Calibri;font-size:1.00001em;font-weight:700}.st5{font-size:1em}.st6,.st7{fill:#c2c2c2;stroke:none;stroke-linecap:butt;stroke-width:.448023}.st7{fill:#939393}.st8{visibility:visible}.st9{fill:none;filter:url(#filter_2.6666667461395);marker-start:url(#mrkr4-28);stroke:#000;stroke-linecap:butt}.st10{fill:#000;fill-opacity:1;stroke:#000;stroke-opacity:1;stroke-width:.28409090909091}.st11,.st12{stroke:#7f7f7f}.st11{marker-start:url(#mrkr4-34);stroke-linecap:butt;stroke-width:1}.st12{fill:#7f7f7f;fill-opacity:1;stroke-opacity:1;stroke-width:.28409090909091}.st13{fill:#7f7f7f;font-family:Calibri;font-size:.833336em;font-weight:700}.st14,.st15{stroke-dasharray:8,4;stroke-linecap:butt}.st14{fill:none;filter:url(#filter_2.6666667461395);marker-start:url(#mrkr4-28);stroke:#000}.st15{marker-start:url(#mrkr4-34);stroke:#7f7f7f;stroke-width:1}.st16{fill:#7f7f7f}.st16,.st17,.st18{stroke:none;stroke-linecap:butt;stroke-width:.448023}.st17{fill:#0078d4}.st18{fill:#fff}.st19{fill:#548bd4;font-family:Calibri;font-size:.833336em}.st20{fill:#f9c499;stroke:none;stroke-linecap:round;stroke-linejoin:round;stroke-width:.75}.st21,.st22{fill:#595959;stroke:none;stroke-linecap:butt;stroke-width:.448023}.st22{fill:#0070c0}.st23{fill:#d83b01}.st24{stroke:none;stroke-linecap:butt;stroke-width:.448023}.st25{fill:#262626;font-family:Calibri;font-size:.75em;font-weight:700}.st26{font-size:1em;font-weight:400}.st27,.st28{fill:#fff;stroke:#000;stroke-linecap:round;stroke-linejoin:round;stroke-width:.75;visibility:hidden}.st28{fill:#f2f2f2;fill-opacity:.6;stroke:none}.st29,.st30,.st31,.st32{stroke:none;stroke-linecap:butt;stroke-width:.75}.st29{fill:#8f8f8f;fill-opacity:0}.st30{fill:url(#grad10-269)}.st31{fill:url(#grad7-277)}.st32{fill:#333;fill-opacity:0}.st33{fill:none;fill-rule:evenodd;font-size:12px;overflow:visible;stroke-linecap:square;stroke-miterlimit:3}</style><defs id="Patterns_And_Gradients"><pattern id="grad10-269" width="1" height="1" x="0" y="0" patternContentUnits="objectBoundingBox"><path style="fill:url(#grad0-270)" d="M 0.5 0.5 L 0 0 L 0 1 z"/><path style="fill:url(#grad0-271)" d="M 0.5 0.5 L 1 0 L 1 1 z"/><path style="fill:url(#grad0-272)" d="M 0.5 0.5 L 0 0 L 1 0 z"/><path style="fill:url(#grad0-273)" d="M 0.5 0.5 L 0 1 L 1 1 z"/></pattern><linearGradient id="grad0-270" x1="0" x2="1" y1="0" y2="0" gradientTransform="rotate(180 0.5 0.5)"><stop offset="0" stop-color="#fff" stop-opacity="0"/><stop offset="1" stop-color="#e6e6e6" stop-opacity="0"/></linearGradient><linearGradient id="grad0-271" x1="0" x2="1" y1="0" y2="0" gradientTransform="rotate(360 0.5 0.5)"><stop offset="0" stop-color="#fff" stop-opacity="0"/><stop offset="1" stop-color="#e6e6e6" stop-opacity="0"/></linearGradient><linearGradient id="grad0-272" x1="0" x2="1" y1="0" y2="0" gradientTransform="rotate(270 0.5 0.5)"><stop offset="0" stop-color="#fff" stop-opacity="0"/><stop offset="1" stop-color="#e6e6e6" stop-opacity="0"/></linearGradient><linearGradient id="grad0-273" x1="0" x2="1" y1="0" y2="0" gradientTransform="rotate(90 0.5 0.5)"><stop offset="0" stop-color="#fff" stop-opacity="0"/><stop offset="1" stop-color="#e6e6e6" stop-opacity="0"/></linearGradient><radialGradient id="grad7-277" cx="0" cy="0" r="1.4"><stop offset="0" stop-color="#333" stop-opacity="0"/><stop offset="1" stop-color="#000" stop-opacity="0"/></radialGradient><radialGradient id="grad6-291" cx="1" cy="0" r="1.4"><stop offset="0" stop-color="#cb2028" stop-opacity="1"/><stop offset="1" stop-color="#ff4e3b" stop-opacity="1"/></radialGradient></defs><defs id="Markers"><g id="lend4"><path style="stroke:none" d="M 2 1 L 0 0 L 2 -1 L 2 1"/></g><marker id="mrkr4-28" class="st10" markerUnits="strokeWidth" orient="auto" overflow="visible" refX="6.68"><use transform="scale(3.52)" xlink:href="#lend4"/></marker><marker id="mrkr4-34" class="st12" markerUnits="strokeWidth" orient="auto" overflow="visible" refX="6.68"><use transform="scale(3.52)" xlink:href="#lend4"/></marker></defs><defs id="Filters"><filter id="filter_2.6666667461395"><feGaussianBlur stdDeviation="2.667"/></filter></defs><g><title>Page-1</title><g id="group5066-1" transform="translate(319.375,-182.306)"><title>Sheet.5066</title><g id="group5062-2"><title>Cloud Download.2096</title><g id="shape5063-3" transform="translate(0,-27.6207)"><title>Sheet.5063</title><path d="M97.45 263.18 C96.52 261.01 95.28 258.83 93.41 257.28 C91.86 255.73 89.69 254.18 87.52 253.25 C85.34 252.32 82.86 251.69 80.38 251.69 C80.07 248.28 78.83 244.87 77.28 241.76 C75.72 238.66 73.55 236.18 71.07 234.01 C68.59 231.83 65.79 229.97 62.69 228.73 C59.59 227.49 56.17 226.87 52.45 226.87 C49.97 226.87 47.79 227.18 45.62 227.8 C43.45 228.42 41.28 229.35 39.1 230.28 C37.24 231.52 35.38 232.76 33.52 234.32 C31.97 235.87 30.41 237.73 29.17 239.59 C27.62 239.28 26.07 239.28 24.52 239.28 C21.1 239.28 18 239.9 14.9 241.14 C11.79 242.38 9.31 244.25 7.14 246.42 C4.97 248.59 3.1 251.38 1.86 254.18 C0.62 257.28 0 260.38 0 263.8 C0 267.21 0.62 270.32 1.86 273.42 C3.1 276.52 4.97 279.01 7.14 281.18 C9.31 283.35 12.1 285.21 14.9 286.45 C18 287.69 21.1 288.32 24.52 288.32 L39.41 288.32 L39.41 274.04 L59.28 274.04 L59.28 288.32 L80.38 288.32 C82.86 288.32 85.34 287.69 87.52 286.76 C89.69 285.83 91.86 284.59 93.41 282.73 C94.97 281.18 96.52 279.01 97.45 276.83 C98.38 274.66 99 272.18 99 269.69 C98.69 267.83 98.38 265.35 97.45 263.18 Z" class="st1"/></g><g id="shape5064-5" transform="translate(33.8276,-4.54747E-13)"><title>Sheet.5064</title><path d="M26.38 268.14 L18.62 275.59 L18.62 261.32 L18.62 253.87 L12.1 253.87 L12.1 261.32 L12.1 275.59 L4.34 268.14 L0 272.8 L15.52 288.32 L31.03 272.8 L26.38 268.14 Z" class="st2"/></g></g><g id="shape5065-7" transform="translate(10,-46.8594)"><title>Sheet.5065</title><desc>Office 365 CDN</desc><rect width="79" height="20" x="0" y="268.316" class="st3"/><text x="14.16" y="274.72" class="st4">Office 365 <tspan x="28.59" class="st5" dy="1.2em">CDN</tspan></text></g></g><g id="group5067-11" transform="translate(67.375,-18.9209)"><title>Users - People.2097</title><g id="shape5068-12" transform="translate(32.9924,-27.1595)"><title>Sheet.5068</title><path d="M15.68 288.32 C24.24 288.32 31.17 281.39 31.17 272.82 C31.17 266.44 27.34 261.16 22.06 258.6 C20.05 257.69 17.86 257.15 15.68 257.15 C13.49 257.15 11.12 257.69 9.3 258.6 C4.01 260.97 0.18 266.44 0.18 272.82 C0 281.39 7.11 288.32 15.68 288.32 Z" class="st6"/></g><g id="shape5069-14" transform="translate(25.3367,-0.182278)"><title>Sheet.5069</title><path d="M23.33 264.98 C10.39 264.98 0 275.37 0 288.32 L46.66 288.32 C46.66 275.56 36.09 264.98 23.33 264.98 Z" class="st6"/></g><g id="group5070-16"><title>Sheet.5070</title><g id="shape5071-17"><title>Sheet.5071</title><path d="M0 288.32 L18.23 288.32 C18.23 283.21 19.5 278.47 21.69 274.1 C19.87 273.19 17.68 272.82 15.49 272.82 C6.93 272.64 0 279.75 0 288.32 Z" class="st7"/></g><g id="shape5072-19" transform="translate(3.82785,-19.3215)"><title>Sheet.5072</title><path d="M11.67 264.98 C5.29 264.98 0 270.27 0 276.65 C0 280.3 1.64 283.39 4.19 285.58 C6.02 287.22 8.38 288.13 10.94 288.32 C11.12 288.32 11.3 288.32 11.67 288.32 C11.85 288.32 12.03 288.32 12.39 288.32 C14.95 288.13 17.32 287.22 19.14 285.58 C21.69 283.39 23.33 280.3 23.33 276.65 C23.33 270.27 18.23 264.98 11.67 264.98 Z" class="st7"/></g></g></g><g id="shape5096-21" transform="translate(298.721,477.597) rotate(163.301)"><title>Line Vert - Arrow (Up &amp; Dwn)</title><g id="shadow5096-22" class="st8"><path d="M6.68 288.32 L7.04 288.32 L88.05 288.32" class="st9" transform="matrix(0.01,0,0,0.01,44.7348,281.601)"/></g><path d="M6.68 288.32 L7.04 288.32 L88.05 288.32" class="st11"/></g><g id="shape5097-35" transform="translate(206.875,-36.5277)"><title>Sheet.5097</title><desc>SharePoint Site Page</desc><rect width="72" height="28.695" x="0" y="259.621" class="st3"/><text x="4.23" y="270.97" class="st13">SharePoint Site <tspan x="25.98" class="st5" dy="1.2em">Page</tspan></text></g><g id="shape5113-39" transform="translate(85.375,-0.375)"><title>Sheet.5113</title><desc>Users</desc><rect width="40.75" height="20" x="0" y="268.316" class="st3"/><text x="8.83" y="281.32" class="st13">Users</text></g><g id="group5115-42" transform="translate(12.2507,-192.374)"><title>Sheet.5115</title><g id="group5054-43" transform="translate(-0.000678392,0.000212264)"><title>Cloud.2055</title><g id="shape5055-44" transform="translate(0,-8.84434)"><title>Sheet.5055</title><path d="M45.99 252.5 C42.9 252.94 40.24 254.26 37.59 255.59 C34.94 256.92 33.17 258.69 31.4 260.9 C29.63 263.11 28.3 265.32 27.42 267.97 C26.53 270.63 26.09 273.72 26.09 276.82 C26.09 278.59 26.09 280.8 26.53 282.57 C26.98 284.34 27.42 286.55 27.86 288.32 L18.57 288.32 C15.92 288.32 13.71 287.87 11.5 286.55 C9.29 285.66 7.08 283.89 5.31 282.12 C3.54 280.36 2.21 278.14 1.33 275.93 C0.44 273.72 0 271.07 0 268.86 C0 264.44 0.88 260.9 2.65 257.8 C4.42 254.71 7.52 252.05 11.5 250.73 C12.38 250.28 13.27 249.84 14.15 249.84 C15.04 249.4 15.92 249.4 17.25 249.4 C17.25 248.96 17.25 248.52 17.25 248.07 C17.25 247.63 17.25 247.19 17.25 246.75 C17.25 243.65 17.69 240.56 19.02 237.46 C20.34 234.37 21.67 232.15 23.88 229.5 C26.09 227.29 28.3 225.52 31.4 224.19 C34.05 222.87 37.59 222.43 40.68 222.43 C41.57 222.43 42.45 222.43 43.34 222.43 C44.22 222.43 45.55 222.87 46.43 222.87 C47.32 223.31 48.2 223.31 49.53 223.75 C50.41 224.19 51.3 224.64 52.18 225.08 C53.51 222.87 54.83 220.66 57.05 218.45 C58.81 216.68 61.03 214.91 63.24 213.58 C65.45 212.25 67.66 210.93 70.31 210.49 C72.97 209.6 75.62 209.16 78.27 209.16 C82.25 209.16 85.79 210.04 89.33 211.37 C92.87 212.7 95.96 214.91 99.06 217.12 C101.71 219.77 104.36 222.43 106.13 225.96 C107.9 229.5 109.23 233.04 109.67 237.02 C107.9 237.02 106.13 237.02 104.36 237.46 C102.59 237.9 100.83 238.35 99.5 239.23 C98.17 237.46 96.85 235.69 95.52 234.37 C93.75 233.04 91.98 231.71 90.21 230.83 C88.44 229.94 86.23 229.06 84.02 228.62 C81.81 228.17 80.04 227.73 77.83 227.73 C74.29 227.73 70.31 228.17 67.22 229.5 C63.68 230.83 61.03 232.6 57.93 234.81 C55.28 237.02 53.07 239.67 50.85 242.77 C48.2 245.42 46.88 248.96 45.99 252.5 Z" class="st7"/></g><g id="shape5056-46" transform="translate(32.2818,0)"><title>Sheet.5056</title><path d="M95.52 257.36 C97.73 257.36 99.5 257.8 100.83 258.69 C102.59 259.57 103.92 260.9 104.81 262.22 C106.13 263.55 107.02 265.32 107.46 267.09 C107.9 268.86 108.34 270.63 108.34 272.84 C108.34 274.61 107.9 276.82 107.46 278.59 C106.57 280.36 105.69 282.12 104.36 283.45 C103.04 284.78 101.71 286.1 99.94 286.99 C98.17 287.87 96.4 288.32 94.63 288.32 L19.9 288.32 C16.8 288.32 13.71 287.87 11.5 286.99 C8.84 286.1 7.08 284.78 5.31 283.01 C3.54 281.24 2.21 279.03 1.33 276.82 C0.44 274.16 0 271.51 0 268.42 C0 265.76 0.44 263.11 1.77 260.9 C2.65 258.69 4.42 256.92 6.19 255.15 C7.96 253.82 10.17 252.5 12.38 251.61 C14.59 250.73 17.25 250.28 19.9 250.28 C19.9 247.63 20.78 244.98 21.67 242.77 C22.55 240.11 23.88 237.9 25.65 236.13 C27.42 233.92 29.19 232.6 31.4 230.83 C33.61 229.5 35.82 228.17 38.47 227.73 C40.68 227.29 42.9 226.85 45.55 226.85 C49.97 226.85 53.95 227.73 57.49 229.94 C61.03 232.15 64.12 234.81 66.33 238.35 C67.66 237.46 69.43 237.02 71.64 236.58 C73.85 236.13 75.62 236.13 76.95 236.13 C80.04 236.13 82.69 236.58 85.35 237.9 C87.56 238.79 89.77 240.56 91.54 242.32 C93.31 244.09 94.63 246.3 95.52 248.96 C96.4 251.61 96.85 254.26 96.85 257.36 L95.52 257.36 Z" class="st6"/></g></g><g id="shape2-48" transform="translate(101.648,-15.8568)"><title>SharePoint.2094</title><rect width="42.563" height="40.644" x="0" y="247.672" class="st3"/><switch><svg width="42.563" height="40.644" x="0" y="247.672" color-interpolation-filters="sRGB" enable-background="new" preserveAspectRatio="none" viewBox="7333 1712 44 42.016"><defs><clipPath id="mfid1"><rect id="mfid2" width="44" height="42.016" x="7333" y="1712"/></clipPath></defs><g clip-path="url(#mfid1)"><defs><g id="mfid3"><path d="M22079,5249 C22070,5249 22063,5242 22063,5233 C22055,5230 22048,5223 22044,5215 C22036,5214 22029,5208 22029,5199 C22029,5191 22036,5184 22044,5183 C22048,5175 22055,5168 22063,5165 C22063,5156 22070,5149 22079,5149 C22087,5149 22094,5156 22095,5165 C22103,5168 22110,5175 22113,5183 C22122,5184 22129,5191 22129,5199 C22129,5208 22122,5214 22113,5215 C22110,5223 22103,5230 22095,5233 C22094,5242 22087,5249 22079,5249 Z M22055,5211 C22058,5216 22062,5220 22067,5222 C22070,5219 22074,5217 22079,5217 C22083,5217 22088,5219 22091,5222 C22096,5220 22100,5216 22102,5211 C22099,5208 22097,5204 22097,5199 C22097,5194 22099,5190 22102,5187 C22100,5182 22096,5178 22091,5176 C22088,5179 22083,5181 22079,5181 C22074,5181 22070,5179 22067,5176 C22062,5178 22058,5182 22055,5187 C22059,5190 22061,5194 22061,5199 C22061,5204 22059,5208 22055,5211 Z" transform="matrix(0.33333, 0, 0, 0.33333, 0, 0)"/></g></defs><g><g fill="#fff" fill-rule="evenodd" stroke="none" stroke-width="2.326" transform="matrix(0.33333, 0, 0, 0.33333, 0, 0)"><use stroke="none" transform="matrix(3, -0, -0, 3, -0, 0)" xlink:href="#mfid3"/></g></g><defs><g id="mfid4"><path d="M22075,5250 C22076,5251 22078,5251 22079,5251 C22088,5251 22096,5244 22097,5235 C22105,5231 22111,5225 22115,5217 C22124,5216 22131,5208 22131,5199 C22131,5190 22124,5182 22115,5181 C22111,5173 22105,5167 22097,5163 C22096,5154 22088,5147 22079,5147 C22078,5147 22076,5147 22075,5148 M22075,5183 C22076,5183 22078,5183 22079,5183 C22083,5183 22088,5181 22091,5178 C22095,5180 22098,5183 22100,5187 C22097,5190 22095,5194 22095,5199 C22095,5204 22097,5208 22100,5211 C22098,5215 22095,5218 22091,5220 C22088,5217 22083,5215 22079,5215 C22078,5215 22076,5215 22075,5215 Z M22113,5213 C22113,5213 22112,5213 22112,5213 C22108,5221 22101,5228 22092,5232 C22092,5232 22092,5233 22092,5233 C22092,5240 22086,5246 22079,5246 C22078,5246 22076,5246 22075,5246 C22075,5220 22075,5220 22075,5220 C22076,5220 22078,5219 22079,5219 C22084,5219 22088,5222 22090,5225 C22097,5222 22102,5217 22105,5210 C22102,5208 22099,5204 22099,5199 C22099,5194 22102,5190 22105,5188 C22102,5181 22097,5176 22090,5173 C22088,5176 22084,5179 22079,5179 C22078,5179 22076,5179 22075,5178 C22075,5152 22075,5152 22075,5152 C22076,5152 22078,5152 22079,5152 C22086,5152 22092,5158 22092,5165 C22092,5166 22092,5166 22092,5166 C22101,5170 22108,5177 22112,5186 C22112,5186 22113,5186 22113,5186 C22120,5186 22127,5192 22127,5199 C22127,5206 22120,5213 22113,5213 Z" transform="matrix(0.33333, 0, 0, 0.33333, 0, 0)"/></g></defs><g><g fill="#0078d7" stroke="none" stroke-width="2.326" transform="matrix(0.33333, 0, 0, 0.33333, 0, 0)"><use stroke="none" transform="matrix(3, -0, -0, 3, -0, 0)" xlink:href="#mfid4"/></g><g fill="#0078d7" fill-rule="evenodd" stroke="none" stroke-width="2.326"><path d="M22075,5135 L22000,5148 L22000,5250 L22075,5263 L22075,5135 Z" transform="matrix(0.33333, 0, 0, 0.33333, 0, 0)"/></g></g><defs><g id="mfid5"><path d="M22039,5173 C22033,5173 22027,5177 22026,5183 C22024,5189 22026,5195 22031,5199 C22035,5202 22044,5205 22041,5211 C22039,5213 22036,5213 22034,5213 C22030,5212 22027,5211 22025,5208 C22025,5210 22025,5212 22025,5214 C22025,5215 22025,5216 22025,5217 C22025,5219 22025,5219 22027,5219 C22034,5223 22047,5223 22050,5213 C22052,5209 22051,5204 22049,5200 C22046,5196 22042,5194 22039,5192 C22037,5191 22035,5190 22034,5188 C22034,5186 22034,5184 22036,5183 C22039,5179 22046,5182 22049,5184 C22049,5182 22049,5179 22049,5176 C22049,5176 22049,5175 22049,5175 C22049,5174 22049,5174 22048,5174 C22045,5173 22042,5173 22039,5173" transform="matrix(0.33333, 0, 0, 0.33333, 0, 0)"/></g></defs><g><g fill="#fff" stroke="none" stroke-width="2.326" transform="matrix(0.33333, 0, 0, 0.33333, 0, 0)"><use stroke="none" transform="matrix(3, -0, -0, 3, -0, 0)" xlink:href="#mfid5"/></g></g></g></svg></switch><rect width="42.563" height="40.644" x="0" y="247.672" class="st3"/></g><g id="shape5098-51" transform="translate(34.8743,-5.30617)"><title>Sheet.5098</title><desc>SharePoint Online</desc><rect width="72" height="28.695" x="0" y="259.621" class="st3"/><text x="8.64" y="270.37" class="st4">SharePoint <tspan x="19.53" class="st5" dy="1.2em">Online</tspan></text></g></g><g id="shape5123-55" transform="translate(139.125,-248.875)"><title>Sheet.5123</title><desc>Private origin</desc><rect width="40.75" height="24.625" x="0" y="263.691" class="st3"/><text x="5.62" y="273" class="st13">Private <tspan x="8.4" class="st5" dy="1.2em">origin</tspan></text></g><g id="shape5124-59" transform="translate(283.969,321.652) rotate(-171.514)"><title>Dotted Line Vert - Arrow (Up).5124</title><g id="shadow5124-60" class="st8"><path d="M6.68 288.32 L7.04 288.32 L186.05 288.32" class="st14" transform="matrix(0.01,2.1684E-19,-2.1684E-19,0.01,91.5063,281.476)"/></g><path d="M6.68 288.32 L7.04 288.32 L186.05 288.32" class="st15"/></g><g id="shape5130-71" transform="translate(200.679,-102.452) rotate(-12.5816)"><title>Dotted Line Vert - Arrow (Up).5130</title><g id="shadow5130-72" class="st8"><path d="M6.68 288.32 L7.04 288.32 L126.43 288.32" class="st9" transform="matrix(0.01,-4.33681E-19,4.33681E-19,0.01,61.7108,289.336)"/></g><path d="M6.68 288.32 L7.04 288.32 L126.43 288.32" class="st11"/></g><g id="group5116-83" transform="translate(112.211,-256.187)"><title>Folders.5116</title><g id="group5117-84" transform="translate(11.2574,-6.27623)"><title>Sheet.5117</title><g id="shape5118-85"><title>Sheet.5118</title><path d="M0.1 262.91 L17.33 262.91 L17.33 274.27 L19.03 275.96 L19.03 288.32 L9.17 288.32 L9.17 282.34 L10.96 280.64 L10.96 267.59 L0 267.59 L0 262.91 L0.1 262.91 Z" class="st1"/></g><g id="shape5119-87" transform="translate(19.0279,-13.9472)"><title>Sheet.5119</title><path d="M0 287.42 L0 276.86 L1.79 276.86 L1.79 287.42 L0.9 288.32 L0 287.42 Z" class="st1"/></g></g><g id="group5120-89"><title>Sheet.5120</title><g id="shape5121-90"><title>Sheet.5121</title><path d="M0.1 262.91 L17.33 262.91 L17.33 274.27 L19.03 275.96 L19.03 288.32 L0 288.32 L0 262.91 L0.1 262.91 Z" class="st16"/></g><g id="shape5122-92" transform="translate(19.1275,-13.8475)"><title>Sheet.5122</title><path d="M0 287.42 L0 276.76 L1.69 276.76 L1.69 287.42 L0.8 288.32 L0 287.42 Z" class="st16"/></g></g></g><g id="group5162-94" transform="translate(140.995,-56.37)"><title>Com Blue - 1.2070</title><g id="shape5163-95" transform="translate(0.87,-0.87)"><title>Sheet.5163</title><path d="M9.57 288.32 C4.26 288.32 0 284.05 0 278.75 C0 273.44 4.26 269.18 9.57 269.18 C14.88 269.18 19.14 273.44 19.14 278.75 C19.14 284.05 14.88 288.32 9.57 288.32 Z" class="st17"/></g><g id="shape5164-97"><title>Sheet.5164</title><path d="M10.44 269.18 C15.23 269.18 19.14 273.09 19.14 277.88 C19.14 282.66 15.23 286.58 10.44 286.58 C5.66 286.58 1.74 282.66 1.74 277.88 C1.74 273.09 5.66 269.18 10.44 269.18 ZM10.44 267.44 C4.7 267.44 0 272.13 0 277.88 C0 283.62 4.7 288.32 10.44 288.32 C16.18 288.32 20.88 283.62 20.88 277.88 C20.88 272.13 16.18 267.44 10.44 267.44 Z" class="st18"/></g><g id="shape5165-99" transform="translate(8.874,-6.96)"><title>Sheet.5165</title><path d="M1.39 282.4 L0.17 283.01 L0 282.31 L1.48 281.53 L2.26 281.53 L2.26 288.32 L1.39 288.32 L1.39 282.4 Z" class="st18"/></g></g><g id="shape5166-101" transform="translate(76.375,-84.875)"><title>Sheet.5166</title><desc>Authenticated user navigates to SharePoint page containing pr...</desc><rect width="130.5" height="20" x="0" y="268.316" class="st3"/><text x="5.82" y="269.32" class="st19">Authenticated user navigates <tspan x="4.11" class="st5" dy="1.2em">to SharePoint page containing </tspan><tspan x="29.22" class="st5" dy="1.2em">private CDN asset</tspan></text></g><g id="shape5167-106" transform="translate(49.375,-127.375)"><title>Sheet.5167</title><desc>SharePoint receives request &amp; checks user permissions to origin</desc><rect width="107.5" height="20" x="0" y="268.316" class="st3"/><text x="13.72" y="269.32" class="st19">SharePoint receives <tspan x="8.96" class="st5" dy="1.2em">request &amp; checks user </tspan><tspan x="11.24" class="st5" dy="1.2em">permissions to origin</tspan></text></g><g id="shape5168-111" transform="translate(0.375,-158.875)"><title>Sheet.5168</title><desc>SharePoint generates access token</desc><rect width="107.5" height="20" x="0" y="268.316" class="st3"/><text x="10.19" y="275.32" class="st19">SharePoint generates <tspan x="27.9" class="st5" dy="1.2em">access token</tspan></text></g><g id="shape5170-115" transform="translate(281.255,-149.875)"><title>Sheet.5170</title><desc>Client redirects to CDN URL</desc><rect width="72" height="20" x="0" y="268.316" class="st3"/><text x="5.14" y="275.32" class="st19">Client redirects <tspan x="12.43" class="st5" dy="1.2em">to CDN URL</tspan></text></g><g id="shape5172-119" transform="translate(319.375,-100.375)"><title>Sheet.5172</title><desc>CDN returns cached private asset to client</desc><rect width="99" height="20" x="0" y="268.316" class="st3"/><text x="9.05" y="275.32" class="st19">CDN returns cached <tspan x="5.8" class="st5" dy="1.2em">private asset to client</tspan></text></g><g id="shape5173-123" transform="translate(179.875,-229.875)"><title>Sheet.5173</title><desc>If asset not cached, CDN requests asset from origin</desc><rect width="99" height="20" x="0" y="268.316" class="st3"/><text x="10.3" y="269.32" class="st19">If asset not cached, <tspan x="10.24" class="st5" dy="1.2em">CDN requests asset </tspan><tspan x="26.81" class="st5" dy="1.2em">from origin</tspan></text></g><g id="shape5174-128" transform="translate(257.005,-142.128) rotate(34.3378)"><title>Line Vert - Arrow (Up &amp; Dwn).5174</title><g id="shadow5174-129" class="st8"><path d="M6.68 288.32 L7.04 288.32 L147.14 288.32" class="st9" transform="matrix(0.01,-8.67362E-19,8.67362E-19,0.01,75.0921,288.735)"/></g><path d="M6.68 288.32 L7.04 288.32 L147.14 288.32" class="st11"/></g><g id="group5175-140" transform="translate(122.995,-154.375)"><title>Com Blue - 2.2071</title><g id="shape5176-141" transform="translate(0.87,-0.87)"><title>Sheet.5176</title><path d="M9.57 288.32 C4.26 288.32 0 284.05 0 278.75 C0 273.44 4.26 269.18 9.57 269.18 C14.88 269.18 19.14 273.44 19.14 278.75 C19.14 284.05 14.88 288.32 9.57 288.32 Z" class="st17"/></g><g id="shape5177-143"><title>Sheet.5177</title><path d="M10.44 269.18 C15.23 269.18 19.14 273.09 19.14 277.88 C19.14 282.66 15.23 286.58 10.44 286.58 C5.65 286.58 1.74 282.66 1.74 277.88 C1.74 273.09 5.65 269.18 10.44 269.18 ZM10.44 267.44 C4.7 267.44 0 272.13 0 277.88 C0 283.62 4.7 288.32 10.44 288.32 C16.18 288.32 20.88 283.62 20.88 277.88 C20.88 272.13 16.18 267.44 10.44 267.44 Z" class="st18"/></g><g id="shape5178-145" transform="translate(8.265,-6.786)"><title>Sheet.5178</title><path d="M0 288.14 L0 287.62 L0.7 286.92 C2.44 285.27 3.22 284.4 3.22 283.36 C3.22 282.66 2.87 282.05 1.91 282.05 C1.3 282.05 0.78 282.4 0.43 282.66 L0.17 282.05 C0.61 281.62 1.3 281.36 2.09 281.36 C3.57 281.36 4.18 282.4 4.18 283.36 C4.18 284.57 3.31 285.62 1.83 287.01 L1.3 287.53 L4.35 287.53 L4.35 288.32 L0 288.32 L0 288.14 Z" class="st18"/></g></g><g id="shape5184-147" transform="translate(29.4154,390.887) rotate(-137.317)"><title>Line Vert - Arrow (Up &amp; Dwn).5184</title><g id="shadow5184-148" class="st8"><path d="M6.68 288.32 L7.04 288.32 L122.43 288.32" class="st9" transform="matrix(0.01,0,0,0.01,57.8906,282.492)"/></g><path d="M6.68 288.32 L7.04 288.32 L122.43 288.32" class="st11"/></g><g id="shape5185-159" transform="translate(559.79,225.413) rotate(124.167)"><title>Line Vert - Arrow (Up &amp; Dwn).5185</title><g id="shadow5185-160" class="st8"><path d="M6.68 288.32 L7.04 288.32 L139.53 288.32" class="st9" transform="matrix(0.01,0,0,0.01,72.3775,283.186)"/></g><path d="M6.68 288.32 L7.04 288.32 L139.53 288.32" class="st11"/></g><g id="group5186-171" transform="translate(386.875,-136.375)"><title>Sheet.5186</title><g id="shape5157-172" transform="translate(0.5625,0)"><title>Sheet.5157</title><rect width="81.513" height="69.75" x="0" y="218.566" class="st20"/></g></g><g id="group5234-174" transform="translate(281.255,-172.375)"><title>Com Blue - 6.2086</title><g id="shape5235-175" transform="translate(0.87,-0.87)"><title>Sheet.5235</title><path d="M9.57 288.32 C4.26 288.32 0 284.05 0 278.75 C0 273.44 4.26 269.18 9.57 269.18 C14.88 269.18 19.14 273.44 19.14 278.75 C19.14 284.05 14.88 288.32 9.57 288.32 Z" class="st17"/></g><g id="shape5236-177"><title>Sheet.5236</title><path d="M10.44 269.18 C15.23 269.18 19.14 273.09 19.14 277.88 C19.14 282.66 15.23 286.58 10.44 286.58 C5.66 286.58 1.74 282.66 1.74 277.88 C1.74 273.09 5.66 269.18 10.44 269.18 ZM10.44 267.44 C4.7 267.44 0 272.13 0 277.88 C0 283.62 4.7 288.32 10.44 288.32 C16.18 288.32 20.88 283.62 20.88 277.88 C20.88 272.13 16.18 267.44 10.44 267.44 Z" class="st18"/></g><g id="shape5237-179" transform="translate(8.091,-6.96)"><title>Sheet.5237</title><path d="M4 282.14 C3.83 282.14 3.57 282.14 3.31 282.14 C1.83 282.4 1.13 283.44 0.96 284.57 C1.3 284.14 1.83 283.79 2.61 283.79 C3.83 283.79 4.7 284.66 4.7 285.97 C4.7 287.18 3.83 288.32 2.44 288.32 C0.96 288.32 0 287.18 0 285.44 C-0 284.14 0.52 283.1 1.13 282.4 C1.65 281.88 2.44 281.53 3.31 281.36 C3.57 281.36 3.83 281.27 4 281.27 L4 282.14 ZM3.74 286.05 C3.74 285.1 3.22 284.49 2.35 284.49 C1.83 284.49 1.3 284.84 1.04 285.36 C0.96 285.44 0.96 285.62 0.96 285.79 C0.96 286.92 1.48 287.71 2.44 287.71 C3.22 287.71 3.74 287.1 3.74 286.05 Z" class="st18"/></g></g><g id="group5238-181" transform="translate(217.495,-256.435)"><title>Com Blue - 7.4004</title><g id="shape5239-182" transform="translate(0.87,-0.87)"><title>Sheet.5239</title><path d="M9.57 288.32 C4.26 288.32 0 284.05 0 278.75 C0 273.44 4.26 269.18 9.57 269.18 C14.88 269.18 19.14 273.44 19.14 278.75 C19.14 284.05 14.88 288.32 9.57 288.32 Z" class="st17"/></g><g id="shape5240-184"><title>Sheet.5240</title><path d="M10.44 269.18 C15.23 269.18 19.14 273.09 19.14 277.88 C19.14 282.66 15.23 286.58 10.44 286.58 C5.66 286.58 1.74 282.66 1.74 277.88 C1.74 273.09 5.66 269.18 10.44 269.18 ZM10.44 267.44 C4.7 267.44 0 272.13 0 277.88 C0 283.62 4.7 288.32 10.44 288.32 C16.18 288.32 20.88 283.62 20.88 277.88 C20.88 272.13 16.18 267.44 10.44 267.44 Z" class="st18"/></g><g id="shape5241-186" transform="translate(8.352,-6.96)"><title>Sheet.5241</title><path d="M4.26 281.53 L4.26 282.14 L1.31 288.32 L0.35 288.32 L3.31 282.31 L0 282.31 L0 281.53 L4.26 281.53 Z" class="st18"/></g></g><g id="group5242-188" transform="translate(302.995,-109.375)"><title>Com Blue - 8.5242</title><g id="shape5243-189" transform="translate(0.87,-0.87)"><title>Sheet.5243</title><path d="M9.57 288.32 C4.26 288.32 0 284.05 0 278.75 C0 273.44 4.26 269.18 9.57 269.18 C14.88 269.18 19.14 273.44 19.14 278.75 C19.14 284.05 14.88 288.32 9.57 288.32 Z" class="st17"/></g><g id="shape5244-191"><title>Sheet.5244</title><path d="M10.44 269.18 C15.22 269.18 19.14 273.09 19.14 277.88 C19.14 282.66 15.22 286.58 10.44 286.58 C5.65 286.58 1.74 282.66 1.74 277.88 C1.74 273.09 5.65 269.18 10.44 269.18 ZM10.44 267.44 C4.7 267.44 0 272.13 0 277.88 C0 283.62 4.7 288.32 10.44 288.32 C16.18 288.32 20.88 283.62 20.88 277.88 C20.88 272.13 16.18 267.44 10.44 267.44 Z" class="st18"/></g><g id="shape5245-193" transform="translate(8.178,-6.873)"><title>Sheet.5245</title><path d="M0 286.49 C0 285.62 0.52 285.01 1.31 284.66 C0.52 284.31 0.26 283.7 0.26 283.1 C0.26 282.05 1.13 281.27 2.35 281.27 C3.65 281.27 4.35 282.05 4.35 282.92 C4.35 283.53 4.09 284.14 3.22 284.49 C4.09 284.84 4.61 285.44 4.61 286.23 C4.61 287.45 3.57 288.23 2.26 288.23 C0.78 288.32 0 287.53 0 286.49 ZM3.65 286.49 C3.65 285.71 3.05 285.27 2.17 285.01 C1.39 285.27 0.96 285.79 0.96 286.4 C0.96 287.1 1.48 287.71 2.35 287.71 C3.13 287.71 3.65 287.18 3.65 286.49 ZM1.13 283.1 C1.13 283.79 1.65 284.14 2.44 284.31 C3.05 284.14 3.48 283.7 3.48 283.1 C3.48 282.57 3.13 281.96 2.35 281.96 C1.48 281.96 1.13 282.49 1.13 283.1 Z" class="st18"/></g></g><g id="group5246-195" transform="translate(271.495,-76.3088)"><title>Com Blue - 9.4008</title><g id="shape5247-196" transform="translate(0.87,-0.87)"><title>Sheet.5247</title><path d="M9.57 288.32 C4.26 288.32 0 284.05 0 278.75 C0 273.44 4.26 269.18 9.57 269.18 C14.88 269.18 19.14 273.44 19.14 278.75 C19.14 284.05 14.88 288.32 9.57 288.32 Z" class="st17"/></g><g id="shape5248-198"><title>Sheet.5248</title><path d="M10.44 269.18 C15.23 269.18 19.14 273.09 19.14 277.88 C19.14 282.66 15.23 286.58 10.44 286.58 C5.65 286.58 1.74 282.66 1.74 277.88 C1.74 273.09 5.65 269.18 10.44 269.18 ZM10.44 267.44 C4.7 267.44 0 272.13 0 277.88 C0 283.62 4.7 288.32 10.44 288.32 C16.18 288.32 20.88 283.62 20.88 277.88 C20.88 272.13 16.18 267.44 10.44 267.44 Z" class="st18"/></g><g id="shape5249-200" transform="translate(8.265,-6.873)"><title>Sheet.5249</title><path d="M0.52 287.62 C0.7 287.62 0.96 287.62 1.3 287.62 C1.83 287.53 2.35 287.36 2.7 286.92 C3.13 286.49 3.48 285.88 3.57 285.1 C3.22 285.53 2.61 285.79 2 285.79 C0.78 285.79 0 284.84 0 283.7 C0 282.4 0.96 281.27 2.35 281.27 C3.74 281.27 4.61 282.4 4.61 284.14 C4.61 285.62 4.09 286.66 3.48 287.36 C2.96 287.88 2.26 288.14 1.48 288.23 C1.13 288.32 0.87 288.32 0.61 288.32 L0.61 287.62 L0.52 287.62 ZM0.87 283.7 C0.87 284.57 1.39 285.18 2.17 285.18 C2.78 285.18 3.31 284.92 3.48 284.49 C3.57 284.4 3.57 284.31 3.57 284.14 C3.57 283.01 3.13 282.05 2.17 282.05 C1.39 282.05 0.87 282.75 0.87 283.7 Z" class="st18"/></g></g><g id="shape5203-202" transform="translate(287.875,-64.1227)"><title>Sheet.5203</title><desc>Page is rendered with SharePoint content and private CDN asset</desc><rect width="107.5" height="20" x="0" y="268.316" class="st3"/><text x="9.58" y="269.32" class="st19">Page is rendered with <tspan x="5.78" class="st5" dy="1.2em">SharePoint content and </tspan><tspan x="17.72" class="st5" dy="1.2em">private CDN asset</tspan></text></g><g id="group5255-207" transform="translate(125.875,-181.375)"><title>Com Blue - 4.2073</title><g id="shape5256-208" transform="translate(0.87,-0.87)"><title>Sheet.5256</title><path d="M9.57 288.32 C4.26 288.32 0 284.05 0 278.75 C0 273.44 4.26 269.18 9.57 269.18 C14.88 269.18 19.14 273.44 19.14 278.75 C19.14 284.05 14.88 288.32 9.57 288.32 Z" class="st17"/></g><g id="shape5257-210"><title>Sheet.5257</title><path d="M10.44 269.18 C15.23 269.18 19.14 273.09 19.14 277.88 C19.14 282.66 15.23 286.58 10.44 286.58 C5.66 286.58 1.74 282.66 1.74 277.88 C1.74 273.09 5.66 269.18 10.44 269.18 ZM10.44 267.44 C4.7 267.44 0 272.13 0 277.88 C0 283.62 4.7 288.32 10.44 288.32 C16.18 288.32 20.88 283.62 20.88 277.88 C20.88 272.13 16.18 267.44 10.44 267.44 Z" class="st18"/></g><g id="shape5258-212" transform="translate(7.917,-6.96)"><title>Sheet.5258</title><path d="M3.13 288.32 L3.13 286.49 L0 286.49 L0 285.88 L3.04 281.53 L4 281.53 L4 285.71 L4.96 285.71 L4.96 286.4 L4 286.4 L4 288.23 L3.13 288.23 L3.13 288.32 ZM3.13 285.71 L3.13 283.44 C3.13 283.1 3.13 282.75 3.13 282.4 C2.96 282.83 2.78 283.1 2.61 283.44 L0.96 285.79 L3.13 285.79 L3.13 285.71 Z" class="st18"/></g></g><g id="shape5204-214" transform="translate(142.125,-174.875)"><title>Sheet.5204</title><desc>SharePoint returns native content</desc><rect width="91.75" height="20" x="0" y="268.316" class="st3"/><text x="7.67" y="275.32" class="st19">SharePoint returns <tspan x="16.31" class="st5" dy="1.2em">native content</tspan></text></g><g id="group5230-218" transform="translate(165.011,-145.375)"><title>Com Blue - 5.2074</title><g id="shape5231-219" transform="translate(0.87,-0.87)"><title>Sheet.5231</title><path d="M9.57 288.32 C4.26 288.32 0 284.05 0 278.75 C0 273.44 4.26 269.18 9.57 269.18 C14.88 269.18 19.14 273.44 19.14 278.75 C19.14 284.05 14.88 288.32 9.57 288.32 Z" class="st17"/></g><g id="shape5232-221"><title>Sheet.5232</title><path d="M10.44 269.18 C15.23 269.18 19.14 273.09 19.14 277.88 C19.14 282.66 15.23 286.58 10.44 286.58 C5.66 286.58 1.74 282.66 1.74 277.88 C1.74 273.09 5.66 269.18 10.44 269.18 ZM10.44 267.44 C4.7 267.44 0 272.13 0 277.88 C0 283.62 4.7 288.32 10.44 288.32 C16.18 288.32 20.88 283.62 20.88 277.88 C20.88 272.13 16.18 267.44 10.44 267.44 Z" class="st18"/></g><g id="shape5233-223" transform="translate(8.178,-6.786)"><title>Sheet.5233</title><path d="M4.09 282.14 L1.48 282.14 L1.22 283.88 C1.39 283.88 1.48 283.88 1.74 283.88 C2.26 283.88 2.78 283.97 3.22 284.23 C3.74 284.49 4.18 285.1 4.18 285.97 C4.18 287.27 3.13 288.32 1.65 288.32 C0.87 288.32 0.26 288.14 0 287.88 L0.26 287.18 C0.52 287.36 1.13 287.53 1.74 287.53 C2.61 287.53 3.31 287.01 3.31 286.05 C3.31 285.18 2.7 284.57 1.39 284.57 C1.04 284.57 0.7 284.57 0.43 284.66 L0.87 281.44 L4.09 281.44 L4.09 282.14 Z" class="st18"/></g></g><g id="shape5225-225" transform="translate(182.625,-139.875)"><title>Sheet.5225</title><desc>SharePoint returns rewritten CDN URL with token</desc><rect width="91.75" height="20" x="0" y="268.316" class="st3"/><text x="7.67" y="269.32" class="st19">SharePoint returns <tspan x="7.46" class="st5" dy="1.2em">rewritten CDN URL </tspan><tspan x="24.02" class="st5" dy="1.2em">with token</tspan></text></g><g id="group5250-230" transform="translate(41.995,-181.375)"><title>Com Blue - 3.5250</title><g id="group5251-231"><title>Sheet.5251</title><g id="shape5252-232" transform="translate(0.87,-0.87)"><title>Sheet.5252</title><path d="M9.57 288.32 C4.26 288.32 0 284.05 0 278.75 C0 273.44 4.26 269.18 9.57 269.18 C14.88 269.18 19.14 273.44 19.14 278.75 C19.14 284.05 14.88 288.32 9.57 288.32 Z" class="st17"/></g><g id="shape5253-234"><title>Sheet.5253</title><path d="M10.44 269.18 C15.23 269.18 19.14 273.09 19.14 277.88 C19.14 282.66 15.23 286.58 10.44 286.58 C5.65 286.58 1.74 282.66 1.74 277.88 C1.74 273.09 5.65 269.18 10.44 269.18 ZM10.44 267.44 C4.7 267.44 0 272.13 0 277.88 C0 283.62 4.7 288.32 10.44 288.32 C16.18 288.32 20.88 283.62 20.88 277.88 C20.88 272.13 16.18 267.44 10.44 267.44 Z" class="st18"/></g></g><g id="shape5254-236" transform="translate(8.091,-6.96)"><title>Sheet.5254</title><path d="M0.35 287.27 C0.61 287.45 1.22 287.71 1.83 287.71 C3.04 287.71 3.39 286.92 3.39 286.4 C3.39 285.44 2.52 285.01 1.65 285.01 L1.13 285.01 L1.13 284.31 L1.65 284.31 C2.35 284.31 3.13 283.97 3.13 283.18 C3.13 282.66 2.78 282.14 1.91 282.14 C1.39 282.14 0.87 282.4 0.52 282.57 L0.26 281.88 C0.61 281.62 1.3 281.36 2 281.36 C3.31 281.36 3.91 282.14 3.91 283.01 C3.91 283.7 3.48 284.31 2.7 284.57 C3.57 284.75 4.18 285.36 4.18 286.31 C4.18 287.36 3.31 288.32 1.74 288.32 C0.96 288.32 0.35 288.05 0 287.88 L0.35 287.27 Z" class="st18"/></g></g><g id="group5273-238" transform="translate(215.875,-64.375)"><title>Extranet Site.5273</title><g id="group5274-239" transform="translate(0,-13.9626)"><title>Sheet.5274</title><g id="shape5275-240" transform="translate(0,-24.5608)"><title>Sheet.5275</title><rect width="47.608" height="6.729" x="0" y="281.587" class="st21"/></g><g id="shape5276-242" transform="translate(15.8131,0)"><title>Sheet.5276</title><path d="M7.91 272.5 C3.53 272.5 0 276.04 0 280.41 C-0 284.78 3.53 288.32 7.91 288.32 C12.28 288.32 15.81 284.78 15.81 280.41 C15.81 276.04 12.28 272.5 7.91 272.5 ZM13.63 281.92 C13.63 281.75 13.63 281.75 13.46 281.59 C13.46 281.42 13.29 281.25 13.12 281.08 C13.12 281.08 13.12 280.91 13.12 280.91 C13.12 280.91 13.12 280.75 13.12 280.75 C13.12 280.75 13.12 280.58 13.12 280.58 C13.12 280.58 13.12 280.41 13.12 280.41 C12.95 280.41 12.79 280.41 12.62 280.24 C12.45 280.24 12.28 280.07 12.28 280.07 C12.28 280.07 12.11 280.07 12.11 280.07 C12.11 280.07 11.94 280.07 11.94 280.07 C11.94 280.07 11.78 280.07 11.78 280.07 C11.78 280.07 11.61 280.07 11.61 280.07 L11.44 280.07 C11.44 280.07 11.27 280.07 11.27 280.07 C11.1 280.07 11.1 280.07 11.1 280.07 C11.1 280.07 10.93 280.07 10.93 280.07 C10.77 280.07 10.77 280.07 10.6 279.9 C10.43 279.9 10.43 279.74 10.26 279.74 C10.26 279.74 10.09 279.57 10.09 279.57 C10.09 279.57 10.09 279.57 9.93 279.4 C9.93 279.4 9.93 279.4 9.76 279.4 C9.76 279.4 9.76 279.4 9.59 279.23 C9.42 279.06 9.59 279.23 9.59 279.06 L9.76 279.06 L9.59 279.06 L9.59 278.89 C9.59 278.89 9.59 278.89 9.59 278.89 C9.59 278.89 9.59 278.89 9.59 278.89 L9.25 278.73 L9.42 278.22 C9.42 277.89 9.25 277.72 9.42 277.55 C9.42 277.38 9.59 277.21 9.59 277.21 C9.76 277.04 9.76 277.04 9.93 276.88 C10.09 276.71 10.26 276.71 10.26 276.54 L10.26 276.37 L10.77 275.7 L10.93 275.7 C11.1 275.7 11.27 275.7 11.44 275.7 C11.61 275.7 11.78 275.7 11.94 275.7 C12.11 275.7 12.28 275.7 12.45 275.7 C12.62 275.7 12.79 275.7 12.95 275.53 C13.96 276.71 14.64 278.39 14.64 280.07 C14.64 281.42 14.3 282.76 13.46 283.77 C13.46 283.61 13.29 283.44 13.29 283.27 C13.29 283.1 13.12 282.93 13.12 282.76 C13.12 282.6 13.12 282.43 13.12 282.26 C13.12 282.09 13.12 282.09 13.12 281.92 C13.12 281.92 13.12 281.75 13.12 281.75 C13.63 282.09 13.63 282.09 13.63 281.92 ZM6.73 286.13 C6.73 286.3 6.73 286.47 6.56 286.47 C6.56 286.63 6.39 286.8 6.39 286.8 C6.39 286.97 6.22 286.97 6.22 287.14 C5.55 286.97 5.05 286.8 4.54 286.47 C4.54 286.3 4.54 286.3 4.54 286.13 C4.54 285.96 4.54 285.96 4.54 285.79 C4.54 285.62 4.54 285.62 4.71 285.46 C4.71 285.29 4.71 285.29 4.71 285.12 C4.71 284.95 4.71 284.78 4.71 284.61 C4.71 284.45 4.54 284.28 4.54 284.11 C4.54 283.94 4.37 283.77 4.37 283.61 C4.37 283.44 4.21 283.27 4.21 283.1 C4.21 282.93 4.04 282.76 4.04 282.6 C4.04 282.43 4.04 282.26 4.04 282.26 L3.87 282.26 C3.87 282.26 3.87 282.09 4.04 282.09 C4.04 282.09 4.21 281.92 4.21 281.92 C4.21 281.92 4.37 281.75 4.37 281.75 C4.37 281.75 4.37 281.59 4.37 281.59 C4.37 281.59 4.37 281.42 4.37 281.42 C4.37 281.42 4.37 281.25 4.37 281.25 L4.54 281.25 C4.71 281.08 4.71 280.91 4.88 280.75 C5.05 280.75 5.21 280.58 5.38 280.58 C5.38 280.58 5.38 280.58 5.55 280.58 C5.55 280.58 5.72 280.58 5.89 280.58 C6.06 280.58 6.06 280.58 6.22 280.75 C6.39 280.75 6.39 280.75 6.39 280.75 C6.39 280.75 6.39 280.75 6.39 280.75 C6.39 280.75 6.39 280.75 6.39 280.75 C6.39 280.75 6.39 280.75 6.56 280.75 C6.56 280.75 6.73 280.75 6.73 280.91 C6.73 280.91 6.9 281.08 6.9 281.08 C6.9 281.08 7.07 281.08 7.07 281.25 C7.23 281.25 7.23 281.25 7.4 281.42 C7.57 281.42 7.74 281.59 7.91 281.59 C8.07 281.75 8.24 281.75 8.41 281.92 C8.58 282.09 8.75 282.26 8.92 282.26 C9.08 282.43 9.25 282.6 9.25 282.6 C9.42 282.76 9.42 282.76 9.42 282.93 L9.08 283.27 C9.08 283.61 9.08 283.77 9.08 283.94 C9.08 284.11 8.92 284.28 8.75 284.28 C8.58 284.45 8.41 284.45 8.41 284.45 C8.24 284.45 8.07 284.61 7.91 284.78 C7.91 284.95 7.91 284.95 7.91 285.12 C7.91 285.29 7.74 285.29 7.74 285.46 C7.74 285.62 7.57 285.62 7.4 285.79 C7.23 285.79 7.23 285.96 7.07 285.96 L6.73 285.79 C6.73 285.79 6.73 285.79 6.73 285.79 C6.73 285.79 6.73 285.79 6.73 285.79 C6.73 285.79 6.73 285.96 6.73 286.13 ZM3.2 280.75 C3.2 280.91 3.2 280.91 3.2 280.75 L2.86 280.24 C2.69 280.24 2.52 280.24 2.36 280.24 C2.19 280.24 2.02 280.07 1.85 280.07 C1.68 280.07 1.51 279.9 1.35 279.74 C1.18 279.74 1.01 279.57 1.01 279.4 C1.18 277.72 2.02 276.2 3.2 275.19 C3.36 275.19 3.36 275.19 3.36 275.36 C3.36 275.36 3.53 275.53 3.53 275.53 C3.53 275.53 3.7 275.7 3.7 275.7 C3.7 275.7 3.87 275.87 4.04 275.87 L4.21 275.7 L4.21 275.53 L4.54 275.19 L4.37 274.69 C4.37 274.69 4.37 274.69 4.54 274.69 C4.54 274.69 4.71 274.69 4.71 274.69 C4.88 274.69 5.05 274.69 5.05 274.69 C5.21 274.69 5.21 274.69 5.21 274.86 C5.21 274.86 5.38 275.03 5.38 275.03 C5.38 275.03 5.55 275.19 5.55 275.36 L5.89 275.19 C5.89 275.19 6.06 275.19 6.22 275.36 C6.39 275.36 6.39 275.53 6.56 275.53 C6.73 275.53 6.73 275.7 6.9 275.7 C7.07 275.7 7.07 275.87 7.07 275.87 C7.07 275.87 7.07 276.04 6.9 276.04 C6.9 276.04 6.73 276.2 6.73 276.2 C6.56 276.2 6.56 276.2 6.39 276.2 C6.22 276.2 6.22 276.2 6.06 276.2 C5.89 276.2 5.89 276.2 5.89 276.2 C5.89 276.2 5.72 276.2 5.72 276.37 L6.22 276.54 C6.06 276.71 6.06 276.71 5.89 276.71 C5.72 276.71 5.72 276.88 5.55 276.88 L5.55 277.04 L4.88 277.38 L4.88 277.55 L4.88 277.21 C4.88 277.21 4.88 277.21 4.88 277.21 C4.88 277.21 4.88 277.21 4.88 277.21 C4.88 277.21 4.88 277.21 4.88 277.21 C4.88 277.21 4.88 277.21 4.88 277.21 L4.71 277.21 C4.71 277.21 4.71 277.21 4.71 277.21 C4.71 277.21 4.71 277.21 4.71 277.38 C4.71 277.38 4.71 277.38 4.88 277.55 C4.88 277.55 4.88 277.55 4.88 277.55 C4.88 277.55 4.88 277.55 4.88 277.55 C4.88 277.55 4.88 277.55 4.88 277.55 C4.88 277.55 4.88 277.55 4.88 277.55 C4.88 277.55 5.05 277.55 4.88 277.55 C4.88 277.55 4.71 277.55 4.71 277.55 C4.71 277.55 4.54 277.72 4.54 277.72 C4.54 277.72 4.37 277.89 4.37 278.05 C4.37 278.22 4.37 278.22 4.37 278.39 C4.37 278.56 4.37 278.56 4.37 278.73 C4.37 278.56 4.21 278.39 4.04 278.22 C3.87 278.05 3.7 278.05 3.53 278.05 L3.2 278.05 L3.36 278.22 C3.2 278.22 3.2 278.22 3.03 278.22 C2.86 278.22 2.86 278.22 2.69 278.22 C2.52 278.22 2.52 278.22 2.36 278.22 C2.19 278.22 2.19 278.39 2.19 278.39 L2.19 278.73 C2.19 278.89 2.19 279.06 2.36 279.06 C2.36 279.23 2.52 279.23 2.69 279.23 C2.86 279.23 3.03 279.23 3.2 279.23 C3.36 279.23 3.53 279.06 3.7 279.06 C3.7 279.23 3.53 279.23 3.53 279.4 C3.53 279.57 3.36 279.57 3.36 279.74 L3.53 279.74 C3.7 279.74 3.7 279.57 3.87 279.74 C4.04 279.74 4.04 279.9 4.21 279.9 C4.37 280.07 4.37 280.07 4.54 280.24 C4.71 280.41 4.71 280.41 4.88 280.41 L4.54 280.58 L3.2 280.75 C3.2 280.75 3.2 280.75 3.2 280.75 ZM10.93 274.35 C10.77 274.35 10.6 274.18 10.43 274.18 L10.77 274.18 C11.27 274.35 11.61 274.69 11.94 274.86 C11.94 274.86 11.78 274.86 11.78 274.86 C11.61 274.86 11.61 275.03 11.61 275.03 C11.61 275.03 11.44 275.19 11.44 275.19 C11.44 275.19 11.44 275.36 11.44 275.36 L11.44 275.53 C11.27 275.7 11.27 275.7 11.1 275.87 C10.93 275.87 10.93 275.87 10.77 275.87 C10.6 275.87 10.6 275.87 10.43 275.87 C10.26 275.87 10.09 275.87 10.09 275.87 L9.93 275.53 L10.09 275.03 L9.93 274.86 L11.27 274.35 C11.27 274.52 11.1 274.35 10.93 274.35 Z" class="st22"/></g></g><g id="shape5277-244" transform="translate(36.5047,-12.9533)"><title>Sheet.5277</title><path d="M0 288.32 L2.86 288.32 L2.86 284.11 C2.86 283.27 3.03 282.6 3.36 281.75 C3.7 281.08 4.04 280.41 4.54 279.9 C5.05 279.4 5.72 278.89 6.39 278.56 C7.07 278.22 7.91 278.05 8.75 278.05 C9.59 278.05 10.26 278.22 11.1 278.56 C11.78 278.89 12.45 279.23 12.95 279.9 C13.46 280.41 13.96 281.08 14.13 281.75 C14.47 282.43 14.64 283.27 14.64 284.11 L14.64 288.32 L17.5 288.32 L0 288.32 ZM4.21 288.32 L12.95 288.32 L12.95 284.11 C12.95 283.44 12.79 282.93 12.62 282.43 C12.45 281.92 12.11 281.42 11.78 281.08 C11.44 280.75 10.93 280.41 10.43 280.07 C9.93 279.9 9.25 279.74 8.75 279.74 C8.07 279.74 7.57 279.9 7.07 280.07 C6.56 280.24 6.06 280.58 5.72 281.08 C5.38 281.42 5.05 281.92 4.88 282.43 C4.71 282.93 4.54 283.61 4.54 284.11 L4.54 288.32 L4.21 288.32 Z" class="st23"/><path d="M0 288.32 L2.86 288.32 L2.86 284.11 C2.86 283.27 3.03 282.6 3.36 281.75 C3.7 281.08 4.04 280.41 4.54 279.9 C5.05 279.4 5.72 278.89 6.39 278.56 C7.07 278.22 7.91 278.05 8.75 278.05 C9.59 278.05 10.26 278.22 11.1 278.56 C11.78 278.89 12.45 279.23 12.95 279.9 C13.46 280.41 13.96 281.08 14.13 281.75 C14.47 282.43 14.64 283.27 14.64 284.11 L14.64 288.32 L17.5 288.32M4.21 288.32 L12.95 288.32 L12.95 284.11 C12.95 283.44 12.79 282.93 12.62 282.43 C12.45 281.92 12.11 281.42 11.78 281.08 C11.44 280.75 10.93 280.41 10.43 280.07 C9.93 279.9 9.25 279.74 8.75 279.74 C8.07 279.74 7.57 279.9 7.07 280.07 C6.56 280.24 6.06 280.58 5.72 281.08 C5.38 281.42 5.05 281.92 4.88 282.43 C4.71 282.93 4.54 283.61 4.54 284.11 L4.54 288.32 L4.21 288.32" class="st24"/></g><g id="shape5278-247" transform="translate(36.5047,2.84217E-13)"><title>Sheet.5278</title><rect width="17.327" height="12.953" x="0" y="275.362" class="st2"/></g><g id="shape5279-249" transform="translate(2.67786E-13,-7.73832)"><title>Sheet.5279</title><path d="M0 261.06 L0 288.32 L33.98 288.32 L33.98 280.75 L37.18 280.75 C37.01 267.62 47.78 270.82 47.78 270.82 L47.78 261.06 L0 261.06 ZM23.72 284.11 C18.17 284.11 13.79 279.74 13.79 274.18 C13.79 268.63 18.17 264.26 23.72 264.26 C29.27 264.26 33.64 268.63 33.64 274.18 C33.64 279.57 29.1 284.11 23.72 284.11 Z" class="st6"/></g></g><g id="shape5281-251" transform="translate(386.875,-143.388)"><title>Sheet.5281</title><desc>Private assets: Proprietary images</desc><rect width="81.513" height="28.695" x="0" y="259.621" class="st3"/><text x="13.79" y="271.27" class="st25">Private assets:<tspan x="6.1" class="st26" dy="1.2em">Proprietary images</tspan></text></g><g id="group5282-255" transform="translate(413.875,-174.379)"><title>Image map</title><g id="shape5282-256"><rect width="7.234" height="10.4" x="26.996" y="270.617" class="st27"/></g><g id="shape3-258" transform="translate(3.95438,0)"><title>Sheet.3</title><rect width="21.042" height="24.996" x="0" y="263.319" class="st3"/><switch><svg width="24.151" height="28.105" x="-1.555" y="261.765" clip="rect(1.55467 1.55475 1.55467 1.55475)" overflow="hidden" preserveAspectRatio="none" viewBox="0 0 23.2 27"><defs><path id="mfid6" d="M1.5,1.522 L1.5,25.5 L21.715,25.5 L21.715,6.566 C21.715,6.566 18.009,5.902 16.819,5.902 C16.793,5.072 16.81,5.134 16.697,1.522 L1.5,1.522 Z"/></defs><g><g text-rendering="geometricPrecision"><g fill="#5a5a5a"><use fill-rule="evenodd" stroke="none" xlink:href="#mfid6"/><defs><path id="mfid7" d="M2.019,2.041 L2.019,24.981 L21.197,24.981 L21.197,6.421 C21.197,6.421 16.772,5.686 16.657,2.041 L2.019,2.041 Z"/></defs></g><g fill="#fff"><use fill-rule="evenodd" stroke="none" xlink:href="#mfid7"/></g></g></g><defs><path id="mfid8" d="M16.758,1.5 L16.351,1.5 L16.351,7.069 L21.688,7.069 L21.688,6.508 L16.758,1.5 Z"/></defs><mask id="mfid9"><use fill="#fff" fill-rule="evenodd" stroke="none" xlink:href="#mfid8"/></mask><mask id="mfid10" fill="#fff" stroke="none"><g><g mask="url(#mfid9)"><rect id="mfid11" width="23.2" height="27"/></g></g></mask><defs><path id="mfid12" d="M-0.010417,-0.010417 L0.06601,-0.010417 L0.06601,0.068427 L-0.010417,0.068427 Z"/></defs><radialGradient id="mfid13"><stop offset="0" stop-color="#c6c6c6"/><stop offset="1" stop-color="#606060"/></radialGradient><g mask="url(#mfid10)"><g text-rendering="geometricPrecision"><g><g fill="#fff" transform="matrix(96, 0, 0, -96, 16.351, 7.069)"><mask id="mfid14" width=".076" height=".079" x="-.01" y="-.01" maskUnits="userSpaceOnUse"><rect width=".076" height=".079" x="-.01" y="-.01" stroke="none"/></mask><use fill="url(#mfid13)" stroke="none" mask="url(#mfid14)" xlink:href="#mfid12"/><defs><path id="mfid15" d="M16.869,6.55 L20.998,6.55 L16.869,2.403 L16.869,6.55 Z"/></defs></g></g></g></g><g><g text-rendering="geometricPrecision"><g fill="#fff"><use fill-rule="evenodd" stroke="none" xlink:href="#mfid15"/><defs><path id="mfid16" d="M3.994,11.751 C3.994,11.751 4.742,12.211 7.639,11.376 C9.727,10.774 12.13,9.928 13.857,9.932 C15.886,9.936 17.639,11.099 17.903,11.321 C18.124,11.507 18.674,12.072 18.674,12.072 L18.678,22.734 L3.934,22.791 L3.994,11.751 Z"/></defs></g><g fill="#78c17c"><use fill-rule="evenodd" stroke="none" xlink:href="#mfid16"/><defs><path id="mfid17" d="M3.979,11.723 L3.979,4.705 L16.36,4.689 L16.36,7.05 L18.666,7.05 L18.58,12.083 C18.58,12.083 17.211,10.214 14.3,9.992 C11.389,9.768 7.595,11.705 5.48,11.855 C4.199,11.945 3.979,11.723 3.979,11.723 Z"/></defs></g><g fill="#a4d3dd"><use fill-rule="evenodd" stroke="none" xlink:href="#mfid17"/></g><g fill="#974f72"><rect width="5.909" height="4.53" x="12.16" y="10.048" stroke="none"/><defs><path id="mfid18" d="M9.355,12.061 C9.355,10.606 8.28,9.426 6.954,9.426 C5.628,9.426 4.553,10.606 4.553,12.061 C4.553,13.516 5.628,14.696 6.954,14.696 C8.28,14.696 9.355,13.516 9.355,12.061 Z"/></defs></g><g fill="#f36b3a"><use fill-rule="evenodd" stroke="none" xlink:href="#mfid18"/><defs><path id="mfid19" d="M6.224,18.586 L9.718,9.895 L13.125,18.679 C13.125,18.679 11.856,19.833 9.705,19.833 C7.731,19.833 6.224,18.586 6.224,18.586 Z"/></defs></g><g fill="#2f7f2d"><use fill-rule="evenodd" stroke="none" xlink:href="#mfid19"/><defs><path id="mfid20" d="M5.475,18.701 L16.329,18.701 L16.329,8.009 L5.475,8.009 L5.475,18.701 Z"/></defs></g><g fill="#2f7f2d" stroke="#453d3d" stroke-dasharray=".5 1" stroke-linecap="square" stroke-miterlimit="2" stroke-width=".5"><use fill="none" xlink:href="#mfid20"/><defs><path id="mfid21" d="M15.064,18.154 L15.738,21.629 L16.473,20.795 L17.523,22.27 L18.002,21.844 L16.918,20.513 L18.028,20.147 L15.064,18.154 Z"/></defs></g><g fill="#558755" stroke="#453d3d" stroke-dasharray=".5 1" stroke-linecap="square" stroke-miterlimit="2" stroke-width=".5"><use fill-rule="evenodd" stroke="none" xlink:href="#mfid21"/><defs><path id="mfid22" d="M15.657,21.921 C15.657,21.921 16.301,21.189 16.462,21.007 C16.623,21.232 17.502,22.467 17.502,22.467 L18.184,21.862 C18.184,21.862 17.333,20.814 17.141,20.58 C17.397,20.496 18.325,20.186 18.325,20.186 L14.876,17.867 L15.657,21.921 Z M15.257,18.442 C15.66,18.712 17.382,19.874 17.729,20.105 C17.426,20.208 16.695,20.448 16.695,20.448 C16.695,20.448 17.68,21.661 17.818,21.83 C17.73,21.907 17.642,21.987 17.547,22.073 C17.401,21.871 16.483,20.581 16.483,20.581 C16.483,20.581 16.022,21.107 15.816,21.34 C15.738,20.93 15.348,18.917 15.257,18.442 Z"/></defs><use fill-rule="evenodd" stroke="none" xlink:href="#mfid22"/><defs><path id="mfid23" d="M15.222,17.589 L15.909,21.137 L16.656,20.285 L17.731,21.79 L18.218,21.356 L17.111,19.997 L18.245,19.623 L15.222,17.589 Z"/></defs></g><g fill="#fff" stroke="#453d3d" stroke-dasharray=".5 1" stroke-linecap="square" stroke-miterlimit="2" stroke-width=".5"><use fill-rule="evenodd" stroke="none" xlink:href="#mfid23"/><defs><path id="mfid24" d="M15.826,21.433 C15.826,21.433 16.482,20.686 16.645,20.499 C16.809,20.729 17.707,21.989 17.707,21.989 L18.402,21.372 C18.402,21.372 17.536,20.303 17.339,20.063 C17.598,19.976 18.548,19.662 18.548,19.662 L15.026,17.295 L15.826,21.433 Z M15.417,17.883 C15.828,18.158 17.587,19.343 17.938,19.579 C17.63,19.684 16.884,19.93 16.884,19.93 C16.884,19.93 17.89,21.167 18.03,21.339 C17.942,21.418 17.85,21.499 17.756,21.586 C17.606,21.38 16.67,20.065 16.67,20.065 C16.67,20.065 16.197,20.602 15.988,20.838 C15.906,20.422 15.51,18.367 15.417,17.883 Z"/></defs></g><g fill="#565361" stroke="#453d3d" stroke-dasharray=".5 1" stroke-linecap="square" stroke-miterlimit="2" stroke-width=".5"><use fill-rule="evenodd" stroke="none" xlink:href="#mfid24"/></g></g></g></svg></switch><rect width="21.042" height="24.996" x="0" y="263.319" class="st3"/></g><g id="shape5283-261"><title>Sheet.5283</title><rect width="24.996" height="24.996" x="0" y="263.319" class="st28"/></g><g id="group5284-263" transform="translate(22.4965,-7.99874)"><title>Sheet.5284</title><g id="shape5285-264"><title>Sheet.5285</title><rect width="8.999" height="8.999" x="0" y="279.317" class="st29"/></g><g id="shape5286-266" transform="translate(0.484516,-0.484008)"><title>Sheet.5286</title><rect width="8.031" height="8.031" x="0" y="280.285" class="st30"/></g><g id="shape5287-274" transform="translate(1.65365,-4.01833)"><title>Sheet.5287</title><rect width="5.69" height=".962" x="0" y="287.354" class="st31"/></g></g><g id="group5288-278" transform="translate(22.4965,-7.99874)"><title>Sheet.5288</title><g id="shape5289-279"><title>Sheet.5289</title><rect width="8.999" height="8.999" x="0" y="279.317" class="st29"/></g><g id="shape5290-281" transform="translate(0.484516,-0.4835)"><title>Sheet.5290</title><rect width="8.031" height="8.031" x="0" y="280.285" class="st30"/></g><g id="shape5291-284" transform="translate(4.01833,-1.65365)"><title>Sheet.5291</title><rect width=".962" height="5.691" x="0" y="282.624" class="st32"/></g><g id="shape5292-286" transform="translate(1.65365,-4.01833)"><title>Sheet.5292</title><rect width="5.69" height=".962" x="0" y="287.354" class="st32"/></g></g><g id="shape5293-288" transform="translate(-3.12451,3.12451)"><title>Sheet.5293</title></g></g></g></svg>