<svg xmlns="http://www.w3.org/2000/svg" xmlns:ev="http://www.w3.org/2001/xml-events" xmlns:xlink="http://www.w3.org/1999/xlink" width="610.781" height="384.42" class="st33" color-interpolation-filters="sRGB" viewBox="0 0 458.086 288.316" xml:space="preserve"><style type="text/css">.st1{fill:#f9c499;stroke:none}.st1,.st2{stroke-linecap:butt;stroke-width:.448023}.st2,.st3{stroke:none}.st2{fill:#d83b01}.st3{fill:none;stroke-linecap:round;stroke-linejoin:round;stroke-width:.75}.st4{fill:#3f3f3f;font-family:Calibri;font-size:1.00001em;font-weight:700}.st5{font-size:1em}.st6,.st7{fill:#c2c2c2;stroke:none;stroke-linecap:butt;stroke-width:.448023}.st7{fill:#939393}.st8{visibility:visible}.st9{fill:none;filter:url(#filter_2.6666667461395);marker-start:url(#mrkr4-28);stroke:#000;stroke-linecap:butt}.st10{fill:#000;fill-opacity:1;stroke:#000;stroke-opacity:1;stroke-width:.28409090909091}.st11,.st12{stroke:#7f7f7f}.st11{marker-start:url(#mrkr4-34);stroke-linecap:butt;stroke-width:1}.st12{fill:#7f7f7f;fill-opacity:1;stroke-opacity:1;stroke-width:.28409090909091}.st13{fill:#7f7f7f;font-family:Calibri;font-size:.833336em;font-weight:700}.st14,.st15{stroke-dasharray:8,4;stroke-linecap:butt}.st14{fill:none;filter:url(#filter_2.6666667461395);marker-start:url(#mrkr4-28);stroke:#000}.st15{marker-start:url(#mrkr4-34);stroke:#7f7f7f;stroke-width:1}.st16{fill:#7f7f7f}.st16,.st17,.st18{stroke:none;stroke-linecap:butt;stroke-width:.448023}.st17{fill:#0078d4}.st18{fill:#fff}.st19{fill:#548bd4;font-family:Calibri;font-size:.833336em}.st20,.st21,.st22{fill:#f9c499;stroke:none;stroke-linecap:round;stroke-linejoin:round;stroke-width:.75}.st21,.st22{fill:#fff;stroke:#000;visibility:hidden}.st22{fill:#f2f2f2;fill-opacity:.6;stroke:none}.st23{fill:#8f8f8f;fill-opacity:0;stroke:none;stroke-linecap:butt}.st23,.st24,.st25{stroke-width:.75}.st24{fill:url(#grad10-229);stroke:none;stroke-linecap:butt}.st25{fill:url(#grad7-237)}.st25,.st26,.st27,.st28{stroke:none;stroke-linecap:butt}.st26{fill:#333;fill-opacity:0;stroke-width:.75}.st27,.st28{fill:#595959;stroke-width:.448023}.st28{fill:#0070c0}.st29{fill:#d83b01}.st30{stroke:none;stroke-linecap:butt;stroke-width:.448023}.st31{fill:#262626;font-family:Calibri;font-size:.75em;font-weight:700}.st32{font-size:1em;font-weight:400}.st33{fill:none;fill-rule:evenodd;font-size:12px;overflow:visible;stroke-linecap:square;stroke-miterlimit:3}</style><defs id="Patterns_And_Gradients"><pattern id="grad10-229" width="1" height="1" x="0" y="0" patternContentUnits="objectBoundingBox"><path d="M 0.5 0.5 L 0 0 L 0 1 z" style="fill:url(#grad0-230)"/><path d="M 0.5 0.5 L 1 0 L 1 1 z" style="fill:url(#grad0-231)"/><path d="M 0.5 0.5 L 0 0 L 1 0 z" style="fill:url(#grad0-232)"/><path d="M 0.5 0.5 L 0 1 L 1 1 z" style="fill:url(#grad0-233)"/></pattern><linearGradient id="grad0-230" x1="0" x2="1" y1="0" y2="0" gradientTransform="rotate(180 0.5 0.5)"><stop offset="0" stop-color="#fff" stop-opacity="0"/><stop offset="1" stop-color="#e6e6e6" stop-opacity="0"/></linearGradient><linearGradient id="grad0-231" x1="0" x2="1" y1="0" y2="0" gradientTransform="rotate(360 0.5 0.5)"><stop offset="0" stop-color="#fff" stop-opacity="0"/><stop offset="1" stop-color="#e6e6e6" stop-opacity="0"/></linearGradient><linearGradient id="grad0-232" x1="0" x2="1" y1="0" y2="0" gradientTransform="rotate(270 0.5 0.5)"><stop offset="0" stop-color="#fff" stop-opacity="0"/><stop offset="1" stop-color="#e6e6e6" stop-opacity="0"/></linearGradient><linearGradient id="grad0-233" x1="0" x2="1" y1="0" y2="0" gradientTransform="rotate(90 0.5 0.5)"><stop offset="0" stop-color="#fff" stop-opacity="0"/><stop offset="1" stop-color="#e6e6e6" stop-opacity="0"/></linearGradient><radialGradient id="grad7-237" cx="0" cy="0" r="1.4"><stop offset="0" stop-color="#333" stop-opacity="0"/><stop offset="1" stop-color="#000" stop-opacity="0"/></radialGradient><radialGradient id="grad6-251" cx="1" cy="0" r="1.4"><stop offset="0" stop-color="#cb2028" stop-opacity="1"/><stop offset="1" stop-color="#ff4e3b" stop-opacity="1"/></radialGradient></defs><defs id="Markers"><g id="lend4"><path d="M 2 1 L 0 0 L 2 -1 L 2 1" style="stroke:none"/></g><marker id="mrkr4-28" class="st10" markerUnits="strokeWidth" orient="auto" overflow="visible" refX="6.68"><use transform="scale(3.52)" xlink:href="#lend4"/></marker><marker id="mrkr4-34" class="st12" markerUnits="strokeWidth" orient="auto" overflow="visible" refX="6.68"><use transform="scale(3.52)" xlink:href="#lend4"/></marker></defs><defs id="Filters"><filter id="filter_2.6666667461395"><feGaussianBlur stdDeviation="2.667"/></filter></defs><g><title>Page-1</title><g id="group5066-1" transform="translate(307.573,-182.306)"><title>Sheet.5066</title><g id="group5062-2"><title>Cloud Download.2096</title><g id="shape5063-3" transform="translate(0,-27.6207)"><title>Sheet.5063</title><path d="M97.45 263.18 C96.52 261.01 95.28 258.83 93.41 257.28 C91.86 255.73 89.69 254.18 87.52 253.25 C85.34 252.32 82.86 251.69 80.38 251.69 C80.07 248.28 78.83 244.87 77.28 241.76 C75.72 238.66 73.55 236.18 71.07 234.01 C68.59 231.83 65.79 229.97 62.69 228.73 C59.59 227.49 56.17 226.87 52.45 226.87 C49.97 226.87 47.79 227.18 45.62 227.8 C43.45 228.42 41.28 229.35 39.1 230.28 C37.24 231.52 35.38 232.76 33.52 234.32 C31.97 235.87 30.41 237.73 29.17 239.59 C27.62 239.28 26.07 239.28 24.52 239.28 C21.1 239.28 18 239.9 14.9 241.14 C11.79 242.38 9.31 244.25 7.14 246.42 C4.97 248.59 3.1 251.38 1.86 254.18 C0.62 257.28 0 260.38 0 263.8 C0 267.21 0.62 270.32 1.86 273.42 C3.1 276.52 4.97 279.01 7.14 281.18 C9.31 283.35 12.1 285.21 14.9 286.45 C18 287.69 21.1 288.32 24.52 288.32 L39.41 288.32 L39.41 274.04 L59.28 274.04 L59.28 288.32 L80.38 288.32 C82.86 288.32 85.34 287.69 87.52 286.76 C89.69 285.83 91.86 284.59 93.41 282.73 C94.97 281.18 96.52 279.01 97.45 276.83 C98.38 274.66 99 272.18 99 269.69 C98.69 267.83 98.38 265.35 97.45 263.18 Z" class="st1"/></g><g id="shape5064-5" transform="translate(33.8276,-4.54747E-13)"><title>Sheet.5064</title><path d="M26.38 268.14 L18.62 275.59 L18.62 261.32 L18.62 253.87 L12.1 253.87 L12.1 261.32 L12.1 275.59 L4.34 268.14 L0 272.8 L15.52 288.32 L31.03 272.8 L26.38 268.14 Z" class="st2"/></g></g><g id="shape5065-7" transform="translate(10,-46.8594)"><title>Sheet.5065</title><desc>Office 365 CDN</desc><rect width="79" height="20" x="0" y="268.316" class="st3"/><text x="14.16" y="274.72" class="st4">Office 365 <tspan x="28.59" class="st5" dy="1.2em">CDN</tspan></text></g></g><g id="group5067-11" transform="translate(55.573,-18.9209)"><title>Users - People.2097</title><g id="shape5068-12" transform="translate(32.9924,-27.1595)"><title>Sheet.5068</title><path d="M15.68 288.32 C24.24 288.32 31.17 281.39 31.17 272.82 C31.17 266.44 27.34 261.16 22.06 258.6 C20.05 257.69 17.86 257.15 15.68 257.15 C13.49 257.15 11.12 257.69 9.3 258.6 C4.01 260.97 0.18 266.44 0.18 272.82 C0 281.39 7.11 288.32 15.68 288.32 Z" class="st6"/></g><g id="shape5069-14" transform="translate(25.3367,-0.182278)"><title>Sheet.5069</title><path d="M23.33 264.98 C10.39 264.98 0 275.37 0 288.32 L46.66 288.32 C46.66 275.56 36.09 264.98 23.33 264.98 Z" class="st6"/></g><g id="group5070-16"><title>Sheet.5070</title><g id="shape5071-17"><title>Sheet.5071</title><path d="M0 288.32 L18.23 288.32 C18.23 283.21 19.5 278.47 21.69 274.1 C19.87 273.19 17.68 272.82 15.49 272.82 C6.93 272.64 0 279.75 0 288.32 Z" class="st7"/></g><g id="shape5072-19" transform="translate(3.82785,-19.3215)"><title>Sheet.5072</title><path d="M11.67 264.98 C5.29 264.98 0 270.27 0 276.65 C0 280.3 1.64 283.39 4.19 285.58 C6.02 287.22 8.38 288.13 10.94 288.32 C11.12 288.32 11.3 288.32 11.67 288.32 C11.85 288.32 12.03 288.32 12.39 288.32 C14.95 288.13 17.32 287.22 19.14 285.58 C21.69 283.39 23.33 280.3 23.33 276.65 C23.33 270.27 18.23 264.98 11.67 264.98 Z" class="st7"/></g></g></g><g id="shape5096-21" transform="translate(286.919,477.597) rotate(163.301)"><title>Line Vert - Arrow (Up &amp; Dwn)</title><g id="shadow5096-22" class="st8"><path d="M6.68 288.32 L7.04 288.32 L88.05 288.32" class="st9" transform="matrix(0.01,0,0,0.01,44.7348,281.601)"/></g><path d="M6.68 288.32 L7.04 288.32 L88.05 288.32" class="st11"/></g><g id="shape5097-35" transform="translate(195.073,-36.5277)"><title>Sheet.5097</title><desc>SharePoint Site Page</desc><rect width="72" height="28.695" x="0" y="259.621" class="st3"/><text x="4.23" y="270.97" class="st13">SharePoint Site <tspan x="25.98" class="st5" dy="1.2em">Page</tspan></text></g><g id="shape5113-39" transform="translate(73.573,-0.375)"><title>Sheet.5113</title><desc>Users</desc><rect width="40.75" height="20" x="0" y="268.316" class="st3"/><text x="8.83" y="281.32" class="st13">Users</text></g><g id="group5115-42" transform="translate(0.448702,-192.374)"><title>Sheet.5115</title><g id="group5054-43" transform="translate(-0.000678392,0.000212264)"><title>Cloud.2055</title><g id="shape5055-44" transform="translate(0,-8.84434)"><title>Sheet.5055</title><path d="M45.99 252.5 C42.9 252.94 40.24 254.26 37.59 255.59 C34.94 256.92 33.17 258.69 31.4 260.9 C29.63 263.11 28.3 265.32 27.42 267.97 C26.53 270.63 26.09 273.72 26.09 276.82 C26.09 278.59 26.09 280.8 26.53 282.57 C26.98 284.34 27.42 286.55 27.86 288.32 L18.57 288.32 C15.92 288.32 13.71 287.87 11.5 286.55 C9.29 285.66 7.08 283.89 5.31 282.12 C3.54 280.36 2.21 278.14 1.33 275.93 C0.44 273.72 0 271.07 0 268.86 C0 264.44 0.88 260.9 2.65 257.8 C4.42 254.71 7.52 252.05 11.5 250.73 C12.38 250.28 13.27 249.84 14.15 249.84 C15.04 249.4 15.92 249.4 17.25 249.4 C17.25 248.96 17.25 248.52 17.25 248.07 C17.25 247.63 17.25 247.19 17.25 246.75 C17.25 243.65 17.69 240.56 19.02 237.46 C20.34 234.37 21.67 232.15 23.88 229.5 C26.09 227.29 28.3 225.52 31.4 224.19 C34.05 222.87 37.59 222.43 40.68 222.43 C41.57 222.43 42.45 222.43 43.34 222.43 C44.22 222.43 45.55 222.87 46.43 222.87 C47.32 223.31 48.2 223.31 49.53 223.75 C50.41 224.19 51.3 224.64 52.18 225.08 C53.51 222.87 54.83 220.66 57.05 218.45 C58.81 216.68 61.03 214.91 63.24 213.58 C65.45 212.25 67.66 210.93 70.31 210.49 C72.97 209.6 75.62 209.16 78.27 209.16 C82.25 209.16 85.79 210.04 89.33 211.37 C92.87 212.7 95.96 214.91 99.06 217.12 C101.71 219.77 104.36 222.43 106.13 225.96 C107.9 229.5 109.23 233.04 109.67 237.02 C107.9 237.02 106.13 237.02 104.36 237.46 C102.59 237.9 100.83 238.35 99.5 239.23 C98.17 237.46 96.85 235.69 95.52 234.37 C93.75 233.04 91.98 231.71 90.21 230.83 C88.44 229.94 86.23 229.06 84.02 228.62 C81.81 228.17 80.04 227.73 77.83 227.73 C74.29 227.73 70.31 228.17 67.22 229.5 C63.68 230.83 61.03 232.6 57.93 234.81 C55.28 237.02 53.07 239.67 50.85 242.77 C48.2 245.42 46.88 248.96 45.99 252.5 Z" class="st7"/></g><g id="shape5056-46" transform="translate(32.2818,0)"><title>Sheet.5056</title><path d="M95.52 257.36 C97.73 257.36 99.5 257.8 100.83 258.69 C102.59 259.57 103.92 260.9 104.81 262.22 C106.13 263.55 107.02 265.32 107.46 267.09 C107.9 268.86 108.34 270.63 108.34 272.84 C108.34 274.61 107.9 276.82 107.46 278.59 C106.57 280.36 105.69 282.12 104.36 283.45 C103.04 284.78 101.71 286.1 99.94 286.99 C98.17 287.87 96.4 288.32 94.63 288.32 L19.9 288.32 C16.8 288.32 13.71 287.87 11.5 286.99 C8.84 286.1 7.08 284.78 5.31 283.01 C3.54 281.24 2.21 279.03 1.33 276.82 C0.44 274.16 0 271.51 0 268.42 C0 265.76 0.44 263.11 1.77 260.9 C2.65 258.69 4.42 256.92 6.19 255.15 C7.96 253.82 10.17 252.5 12.38 251.61 C14.59 250.73 17.25 250.28 19.9 250.28 C19.9 247.63 20.78 244.98 21.67 242.77 C22.55 240.11 23.88 237.9 25.65 236.13 C27.42 233.92 29.19 232.6 31.4 230.83 C33.61 229.5 35.82 228.17 38.47 227.73 C40.68 227.29 42.9 226.85 45.55 226.85 C49.97 226.85 53.95 227.73 57.49 229.94 C61.03 232.15 64.12 234.81 66.33 238.35 C67.66 237.46 69.43 237.02 71.64 236.58 C73.85 236.13 75.62 236.13 76.95 236.13 C80.04 236.13 82.69 236.58 85.35 237.9 C87.56 238.79 89.77 240.56 91.54 242.32 C93.31 244.09 94.63 246.3 95.52 248.96 C96.4 251.61 96.85 254.26 96.85 257.36 L95.52 257.36 Z" class="st6"/></g></g><g id="shape2-48" transform="translate(101.648,-15.8568)"><title>SharePoint.2094</title><rect width="42.563" height="40.644" x="0" y="247.672" class="st3"/><switch><svg width="42.563" height="40.644" x="0" y="247.672" color-interpolation-filters="sRGB" enable-background="new" preserveAspectRatio="none" viewBox="7333 1712 44 42.016"><defs><clipPath id="mfid107"><rect id="mfid108" width="44" height="42.016" x="7333" y="1712"/></clipPath></defs><g clip-path="url(#mfid107)"><defs><g id="mfid109"><path d="M22079,5249 C22070,5249 22063,5242 22063,5233 C22055,5230 22048,5223 22044,5215 C22036,5214 22029,5208 22029,5199 C22029,5191 22036,5184 22044,5183 C22048,5175 22055,5168 22063,5165 C22063,5156 22070,5149 22079,5149 C22087,5149 22094,5156 22095,5165 C22103,5168 22110,5175 22113,5183 C22122,5184 22129,5191 22129,5199 C22129,5208 22122,5214 22113,5215 C22110,5223 22103,5230 22095,5233 C22094,5242 22087,5249 22079,5249 Z M22055,5211 C22058,5216 22062,5220 22067,5222 C22070,5219 22074,5217 22079,5217 C22083,5217 22088,5219 22091,5222 C22096,5220 22100,5216 22102,5211 C22099,5208 22097,5204 22097,5199 C22097,5194 22099,5190 22102,5187 C22100,5182 22096,5178 22091,5176 C22088,5179 22083,5181 22079,5181 C22074,5181 22070,5179 22067,5176 C22062,5178 22058,5182 22055,5187 C22059,5190 22061,5194 22061,5199 C22061,5204 22059,5208 22055,5211 Z" transform="matrix(0.33333, 0, 0, 0.33333, 0, 0)"/></g></defs><g><g fill="#fff" fill-rule="evenodd" stroke="none" stroke-width="2.326" transform="matrix(0.33333, 0, 0, 0.33333, 0, 0)"><use stroke="none" transform="matrix(3, -0, -0, 3, -0, 0)" xlink:href="#mfid109"/></g></g><defs><g id="mfid110"><path d="M22075,5250 C22076,5251 22078,5251 22079,5251 C22088,5251 22096,5244 22097,5235 C22105,5231 22111,5225 22115,5217 C22124,5216 22131,5208 22131,5199 C22131,5190 22124,5182 22115,5181 C22111,5173 22105,5167 22097,5163 C22096,5154 22088,5147 22079,5147 C22078,5147 22076,5147 22075,5148 M22075,5183 C22076,5183 22078,5183 22079,5183 C22083,5183 22088,5181 22091,5178 C22095,5180 22098,5183 22100,5187 C22097,5190 22095,5194 22095,5199 C22095,5204 22097,5208 22100,5211 C22098,5215 22095,5218 22091,5220 C22088,5217 22083,5215 22079,5215 C22078,5215 22076,5215 22075,5215 Z M22113,5213 C22113,5213 22112,5213 22112,5213 C22108,5221 22101,5228 22092,5232 C22092,5232 22092,5233 22092,5233 C22092,5240 22086,5246 22079,5246 C22078,5246 22076,5246 22075,5246 C22075,5220 22075,5220 22075,5220 C22076,5220 22078,5219 22079,5219 C22084,5219 22088,5222 22090,5225 C22097,5222 22102,5217 22105,5210 C22102,5208 22099,5204 22099,5199 C22099,5194 22102,5190 22105,5188 C22102,5181 22097,5176 22090,5173 C22088,5176 22084,5179 22079,5179 C22078,5179 22076,5179 22075,5178 C22075,5152 22075,5152 22075,5152 C22076,5152 22078,5152 22079,5152 C22086,5152 22092,5158 22092,5165 C22092,5166 22092,5166 22092,5166 C22101,5170 22108,5177 22112,5186 C22112,5186 22113,5186 22113,5186 C22120,5186 22127,5192 22127,5199 C22127,5206 22120,5213 22113,5213 Z" transform="matrix(0.33333, 0, 0, 0.33333, 0, 0)"/></g></defs><g><g fill="#0078d7" stroke="none" stroke-width="2.326" transform="matrix(0.33333, 0, 0, 0.33333, 0, 0)"><use stroke="none" transform="matrix(3, -0, -0, 3, -0, 0)" xlink:href="#mfid110"/></g><g fill="#0078d7" fill-rule="evenodd" stroke="none" stroke-width="2.326"><path d="M22075,5135 L22000,5148 L22000,5250 L22075,5263 L22075,5135 Z" transform="matrix(0.33333, 0, 0, 0.33333, 0, 0)"/></g></g><defs><g id="mfid111"><path d="M22039,5173 C22033,5173 22027,5177 22026,5183 C22024,5189 22026,5195 22031,5199 C22035,5202 22044,5205 22041,5211 C22039,5213 22036,5213 22034,5213 C22030,5212 22027,5211 22025,5208 C22025,5210 22025,5212 22025,5214 C22025,5215 22025,5216 22025,5217 C22025,5219 22025,5219 22027,5219 C22034,5223 22047,5223 22050,5213 C22052,5209 22051,5204 22049,5200 C22046,5196 22042,5194 22039,5192 C22037,5191 22035,5190 22034,5188 C22034,5186 22034,5184 22036,5183 C22039,5179 22046,5182 22049,5184 C22049,5182 22049,5179 22049,5176 C22049,5176 22049,5175 22049,5175 C22049,5174 22049,5174 22048,5174 C22045,5173 22042,5173 22039,5173" transform="matrix(0.33333, 0, 0, 0.33333, 0, 0)"/></g></defs><g><g fill="#fff" stroke="none" stroke-width="2.326" transform="matrix(0.33333, 0, 0, 0.33333, 0, 0)"><use stroke="none" transform="matrix(3, -0, -0, 3, -0, 0)" xlink:href="#mfid111"/></g></g></g></svg></switch><rect width="42.563" height="40.644" x="0" y="247.672" class="st3"/></g><g id="shape5098-51" transform="translate(34.8743,-5.30617)"><title>Sheet.5098</title><desc>SharePoint Online</desc><rect width="72" height="28.695" x="0" y="259.621" class="st3"/><text x="8.64" y="270.37" class="st4">SharePoint <tspan x="19.53" class="st5" dy="1.2em">Online</tspan></text></g></g><g id="shape5123-55" transform="translate(127.323,-248.875)"><title>Sheet.5123</title><desc>Public origin</desc><rect width="40.75" height="24.625" x="0" y="263.691" class="st3"/><text x="7.8" y="273" class="st13">Public <tspan x="8.4" class="st5" dy="1.2em">origin</tspan></text></g><g id="shape5124-59" transform="translate(272.167,321.652) rotate(-171.514)"><title>Dotted Line Vert - Arrow (Up).5124</title><g id="shadow5124-60" class="st8"><path d="M6.68 288.32 L7.04 288.32 L186.05 288.32" class="st14" transform="matrix(0.01,2.1684E-19,-2.1684E-19,0.01,91.5063,281.476)"/></g><path d="M6.68 288.32 L7.04 288.32 L186.05 288.32" class="st15"/></g><g id="shape5130-71" transform="translate(180.964,-100.568) rotate(-14.1981)"><title>Dotted Line Vert - Arrow (Up).5130</title><g id="shadow5130-72" class="st8"><path d="M6.68 288.32 L7.04 288.32 L127.28 288.32" class="st9" transform="matrix(0.01,0,0,0.01,62.0228,289.31)"/></g><path d="M6.68 288.32 L7.04 288.32 L127.28 288.32" class="st11"/></g><g id="group5116-83" transform="translate(100.409,-256.187)"><title>Folders.5116</title><g id="group5117-84" transform="translate(11.2574,-6.27623)"><title>Sheet.5117</title><g id="shape5118-85"><title>Sheet.5118</title><path d="M0.1 262.91 L17.33 262.91 L17.33 274.27 L19.03 275.96 L19.03 288.32 L9.17 288.32 L9.17 282.34 L10.96 280.64 L10.96 267.59 L0 267.59 L0 262.91 L0.1 262.91 Z" class="st1"/></g><g id="shape5119-87" transform="translate(19.0279,-13.9472)"><title>Sheet.5119</title><path d="M0 287.42 L0 276.86 L1.79 276.86 L1.79 287.42 L0.9 288.32 L0 287.42 Z" class="st1"/></g></g><g id="group5120-89"><title>Sheet.5120</title><g id="shape5121-90"><title>Sheet.5121</title><path d="M0.1 262.91 L17.33 262.91 L17.33 274.27 L19.03 275.96 L19.03 288.32 L0 288.32 L0 262.91 L0.1 262.91 Z" class="st16"/></g><g id="shape5122-92" transform="translate(19.1275,-13.8475)"><title>Sheet.5122</title><path d="M0 287.42 L0 276.76 L1.69 276.76 L1.69 287.42 L0.8 288.32 L0 287.42 Z" class="st16"/></g></g></g><g id="group5162-94" transform="translate(129.193,-56.37)"><title>Com Blue - 1.2070</title><g id="shape5163-95" transform="translate(0.87,-0.87)"><title>Sheet.5163</title><path d="M9.57 288.32 C4.26 288.32 0 284.05 0 278.75 C0 273.44 4.26 269.18 9.57 269.18 C14.88 269.18 19.14 273.44 19.14 278.75 C19.14 284.05 14.88 288.32 9.57 288.32 Z" class="st17"/></g><g id="shape5164-97"><title>Sheet.5164</title><path d="M10.44 269.18 C15.23 269.18 19.14 273.09 19.14 277.88 C19.14 282.66 15.23 286.58 10.44 286.58 C5.66 286.58 1.74 282.66 1.74 277.88 C1.74 273.09 5.66 269.18 10.44 269.18 ZM10.44 267.44 C4.7 267.44 0 272.13 0 277.88 C0 283.62 4.7 288.32 10.44 288.32 C16.18 288.32 20.88 283.62 20.88 277.88 C20.88 272.13 16.18 267.44 10.44 267.44 Z" class="st18"/></g><g id="shape5165-99" transform="translate(8.874,-6.96)"><title>Sheet.5165</title><path d="M1.39 282.4 L0.17 283.01 L0 282.31 L1.48 281.53 L2.26 281.53 L2.26 288.32 L1.39 288.32 L1.39 282.4 Z" class="st18"/></g></g><g id="shape5167-101" transform="translate(19.323,-151.494)"><title>Sheet.5167</title><desc>SharePoint receives request</desc><rect width="99" height="20" x="0" y="268.316" class="st3"/><text x="9.47" y="275.32" class="st19">SharePoint receives <tspan x="33.9" class="st5" dy="1.2em">request</tspan></text></g><g id="shape5168-105" transform="translate(132.073,-192.875)"><title>Sheet.5168</title><desc>SharePoint returns native content</desc><rect width="107.5" height="20" x="0" y="268.316" class="st3"/><text x="15.54" y="275.32" class="st19">SharePoint returns <tspan x="24.19" class="st5" dy="1.2em">native content</tspan></text></g><g id="shape5170-109" transform="translate(269.453,-148.875)"><title>Sheet.5170</title><desc>Client redirects to CDN URLs</desc><rect width="72" height="20" x="0" y="268.316" class="st3"/><text x="5.14" y="275.32" class="st19">Client redirects <tspan x="10.48" class="st5" dy="1.2em">to CDN URLs</tspan></text></g><g id="shape5172-113" transform="translate(307.573,-102.875)"><title>Sheet.5172</title><desc>CDN returns cached public assets to client</desc><rect width="99" height="20" x="0" y="268.316" class="st3"/><text x="9.05" y="275.32" class="st19">CDN returns cached <tspan x="5.88" class="st5" dy="1.2em">public assets to client</tspan></text></g><g id="shape5173-117" transform="translate(168.073,-229.875)"><title>Sheet.5173</title><desc>If assets not cached, CDN requests assets from origin</desc><rect width="99" height="20" x="0" y="268.316" class="st3"/><text x="8.35" y="269.32" class="st19">If assets not cached, <tspan x="8.29" class="st5" dy="1.2em">CDN requests assets </tspan><tspan x="26.81" class="st5" dy="1.2em">from origin</tspan></text></g><g id="shape5174-122" transform="translate(245.203,-142.128) rotate(34.3378)"><title>Line Vert - Arrow (Up &amp; Dwn).5174</title><g id="shadow5174-123" class="st8"><path d="M6.68 288.32 L7.04 288.32 L147.14 288.32" class="st9" transform="matrix(0.01,-8.67362E-19,8.67362E-19,0.01,75.0921,288.735)"/></g><path d="M6.68 288.32 L7.04 288.32 L147.14 288.32" class="st11"/></g><g id="group5175-134" transform="translate(112.633,-154.375)"><title>Com Blue - 2.2071</title><g id="shape5176-135" transform="translate(0.87,-0.87)"><title>Sheet.5176</title><path d="M9.57 288.32 C4.26 288.32 0 284.05 0 278.75 C0 273.44 4.26 269.18 9.57 269.18 C14.88 269.18 19.14 273.44 19.14 278.75 C19.14 284.05 14.88 288.32 9.57 288.32 Z" class="st17"/></g><g id="shape5177-137"><title>Sheet.5177</title><path d="M10.44 269.18 C15.23 269.18 19.14 273.09 19.14 277.88 C19.14 282.66 15.23 286.58 10.44 286.58 C5.65 286.58 1.74 282.66 1.74 277.88 C1.74 273.09 5.65 269.18 10.44 269.18 ZM10.44 267.44 C4.7 267.44 0 272.13 0 277.88 C0 283.62 4.7 288.32 10.44 288.32 C16.18 288.32 20.88 283.62 20.88 277.88 C20.88 272.13 16.18 267.44 10.44 267.44 Z" class="st18"/></g><g id="shape5178-139" transform="translate(8.265,-6.786)"><title>Sheet.5178</title><path d="M0 288.14 L0 287.62 L0.7 286.92 C2.44 285.27 3.22 284.4 3.22 283.36 C3.22 282.66 2.87 282.05 1.91 282.05 C1.3 282.05 0.78 282.4 0.43 282.66 L0.17 282.05 C0.61 281.62 1.3 281.36 2.09 281.36 C3.57 281.36 4.18 282.4 4.18 283.36 C4.18 284.57 3.31 285.62 1.83 287.01 L1.3 287.53 L4.35 287.53 L4.35 288.32 L0 288.32 L0 288.14 Z" class="st18"/></g></g><g id="shape5184-141" transform="translate(-5.01053,367.528) rotate(-130.852)"><title>Line Vert - Arrow (Up &amp; Dwn).5184</title><g id="shadow5184-142" class="st8"><path d="M6.68 288.32 L7.04 288.32 L116.16 288.32" class="st9" transform="matrix(0.01,-8.67362E-19,8.67362E-19,0.01,54.4731,282.816)"/></g><path d="M6.68 288.32 L7.04 288.32 L116.16 288.32" class="st11"/></g><g id="shape5185-153" transform="translate(547.988,225.413) rotate(124.167)"><title>Line Vert - Arrow (Up &amp; Dwn).5185</title><g id="shadow5185-154" class="st8"><path d="M6.68 288.32 L7.04 288.32 L139.53 288.32" class="st9" transform="matrix(0.01,0,0,0.01,72.3775,283.186)"/></g><path d="M6.68 288.32 L7.04 288.32 L139.53 288.32" class="st11"/></g><g id="group5257-165" transform="translate(269.453,-172.375)"><title>Com Blue - 5.5257</title><g id="shape5258-166" transform="translate(0.87,-0.87)"><title>Sheet.5258</title><path d="M9.57 288.32 C4.26 288.32 0 284.05 0 278.75 C0 273.44 4.26 269.18 9.57 269.18 C14.88 269.18 19.14 273.44 19.14 278.75 C19.14 284.05 14.88 288.32 9.57 288.32 Z" class="st17"/></g><g id="shape5259-168"><title>Sheet.5259</title><path d="M10.44 269.18 C15.23 269.18 19.14 273.09 19.14 277.88 C19.14 282.66 15.23 286.58 10.44 286.58 C5.66 286.58 1.74 282.66 1.74 277.88 C1.74 273.09 5.66 269.18 10.44 269.18 ZM10.44 267.44 C4.7 267.44 0 272.13 0 277.88 C0 283.62 4.7 288.32 10.44 288.32 C16.18 288.32 20.88 283.62 20.88 277.88 C20.88 272.13 16.18 267.44 10.44 267.44 Z" class="st18"/></g><g id="shape5260-170" transform="translate(8.178,-6.786)"><title>Sheet.5260</title><path d="M4.09 282.14 L1.48 282.14 L1.22 283.88 C1.39 283.88 1.48 283.88 1.74 283.88 C2.26 283.88 2.78 283.97 3.22 284.23 C3.74 284.49 4.18 285.1 4.18 285.97 C4.18 287.27 3.13 288.32 1.65 288.32 C0.87 288.32 0.26 288.14 0 287.88 L0.26 287.18 C0.52 287.36 1.13 287.53 1.74 287.53 C2.61 287.53 3.31 287.01 3.31 286.05 C3.31 285.18 2.7 284.57 1.39 284.57 C1.04 284.57 0.7 284.57 0.43 284.66 L0.87 281.44 L4.09 281.44 L4.09 282.14 Z" class="st18"/></g></g><g id="group5261-172" transform="translate(205.693,-256.435)"><title>Com Blue - 6.5261</title><g id="shape5262-173" transform="translate(0.87,-0.87)"><title>Sheet.5262</title><path d="M9.57 288.32 C4.26 288.32 0 284.05 0 278.75 C0 273.44 4.26 269.18 9.57 269.18 C14.88 269.18 19.14 273.44 19.14 278.75 C19.14 284.05 14.88 288.32 9.57 288.32 Z" class="st17"/></g><g id="shape5263-175"><title>Sheet.5263</title><path d="M10.44 269.18 C15.23 269.18 19.14 273.09 19.14 277.88 C19.14 282.66 15.23 286.58 10.44 286.58 C5.66 286.58 1.74 282.66 1.74 277.88 C1.74 273.09 5.66 269.18 10.44 269.18 ZM10.44 267.44 C4.7 267.44 0 272.13 0 277.88 C0 283.62 4.7 288.32 10.44 288.32 C16.18 288.32 20.88 283.62 20.88 277.88 C20.88 272.13 16.18 267.44 10.44 267.44 Z" class="st18"/></g><g id="shape5264-177" transform="translate(8.091,-6.96)"><title>Sheet.5264</title><path d="M4 282.14 C3.83 282.14 3.57 282.14 3.31 282.14 C1.83 282.4 1.13 283.44 0.96 284.57 C1.3 284.14 1.83 283.79 2.61 283.79 C3.83 283.79 4.7 284.66 4.7 285.97 C4.7 287.18 3.83 288.32 2.44 288.32 C0.96 288.32 0 287.18 0 285.44 C-0 284.14 0.52 283.1 1.13 282.4 C1.65 281.88 2.44 281.53 3.31 281.36 C3.57 281.36 3.83 281.27 4 281.27 L4 282.14 ZM3.74 286.05 C3.74 285.1 3.22 284.49 2.35 284.49 C1.83 284.49 1.3 284.84 1.04 285.36 C0.96 285.44 0.96 285.62 0.96 285.79 C0.96 286.92 1.48 287.71 2.44 287.71 C3.22 287.71 3.74 287.1 3.74 286.05 Z" class="st18"/></g></g><g id="group5265-179" transform="translate(291.193,-110.995)"><title>Com Blue - 7.5265</title><g id="shape5266-180" transform="translate(0.87,-0.87)"><title>Sheet.5266</title><path d="M9.57 288.32 C4.26 288.32 0 284.05 0 278.75 C0 273.44 4.26 269.18 9.57 269.18 C14.88 269.18 19.14 273.44 19.14 278.75 C19.14 284.05 14.88 288.32 9.57 288.32 Z" class="st17"/></g><g id="shape5267-182"><title>Sheet.5267</title><path d="M10.44 269.18 C15.23 269.18 19.14 273.09 19.14 277.88 C19.14 282.66 15.23 286.58 10.44 286.58 C5.66 286.58 1.74 282.66 1.74 277.88 C1.74 273.09 5.66 269.18 10.44 269.18 ZM10.44 267.44 C4.7 267.44 0 272.13 0 277.88 C0 283.62 4.7 288.32 10.44 288.32 C16.18 288.32 20.88 283.62 20.88 277.88 C20.88 272.13 16.18 267.44 10.44 267.44 Z" class="st18"/></g><g id="shape5268-184" transform="translate(8.352,-6.96)"><title>Sheet.5268</title><path d="M4.26 281.53 L4.26 282.14 L1.31 288.32 L0.35 288.32 L3.31 282.31 L0 282.31 L0 281.53 L4.26 281.53 Z" class="st18"/></g></g><g id="group5269-186" transform="translate(259.693,-76.3088)"><title>Com Blue - 8.4005</title><g id="shape5270-187" transform="translate(0.87,-0.87)"><title>Sheet.5270</title><path d="M9.57 288.32 C4.26 288.32 0 284.05 0 278.75 C0 273.44 4.26 269.18 9.57 269.18 C14.88 269.18 19.14 273.44 19.14 278.75 C19.14 284.05 14.88 288.32 9.57 288.32 Z" class="st17"/></g><g id="shape5271-189"><title>Sheet.5271</title><path d="M10.44 269.18 C15.22 269.18 19.14 273.09 19.14 277.88 C19.14 282.66 15.22 286.58 10.44 286.58 C5.65 286.58 1.74 282.66 1.74 277.88 C1.74 273.09 5.65 269.18 10.44 269.18 ZM10.44 267.44 C4.7 267.44 0 272.13 0 277.88 C0 283.62 4.7 288.32 10.44 288.32 C16.18 288.32 20.88 283.62 20.88 277.88 C20.88 272.13 16.18 267.44 10.44 267.44 Z" class="st18"/></g><g id="shape5272-191" transform="translate(8.178,-6.873)"><title>Sheet.5272</title><path d="M0 286.49 C0 285.62 0.52 285.01 1.31 284.66 C0.52 284.31 0.26 283.7 0.26 283.1 C0.26 282.05 1.13 281.27 2.35 281.27 C3.65 281.27 4.35 282.05 4.35 282.92 C4.35 283.53 4.09 284.14 3.22 284.49 C4.09 284.84 4.61 285.44 4.61 286.23 C4.61 287.45 3.57 288.23 2.26 288.23 C0.78 288.32 0 287.53 0 286.49 ZM3.65 286.49 C3.65 285.71 3.05 285.27 2.17 285.01 C1.39 285.27 0.96 285.79 0.96 286.4 C0.96 287.1 1.48 287.71 2.35 287.71 C3.13 287.71 3.65 287.18 3.65 286.49 ZM1.13 283.1 C1.13 283.79 1.65 284.14 2.44 284.31 C3.05 284.14 3.48 283.7 3.48 283.1 C3.48 282.57 3.13 281.96 2.35 281.96 C1.48 281.96 1.13 282.49 1.13 283.1 Z" class="st18"/></g></g><g id="shape5203-193" transform="translate(276.073,-64.1227)"><title>Sheet.5203</title><desc>Page is rendered with SharePoint content and public CDN assets</desc><rect width="107.5" height="20" x="0" y="268.316" class="st3"/><text x="9.58" y="269.32" class="st19">Page is rendered with <tspan x="5.78" class="st5" dy="1.2em">SharePoint content and </tspan><tspan x="17.8" class="st5" dy="1.2em">public CDN assets</tspan></text></g><g id="group5179-198" transform="translate(127.573,-187.495)"><title>Com Blue - 3.2072</title><g id="group5180-199"><title>Sheet.5180</title><g id="shape5181-200" transform="translate(0.87,-0.87)"><title>Sheet.5181</title><path d="M9.57 288.32 C4.26 288.32 0 284.05 0 278.75 C0 273.44 4.26 269.18 9.57 269.18 C14.88 269.18 19.14 273.44 19.14 278.75 C19.14 284.05 14.88 288.32 9.57 288.32 Z" class="st17"/></g><g id="shape5182-202"><title>Sheet.5182</title><path d="M10.44 269.18 C15.23 269.18 19.14 273.09 19.14 277.88 C19.14 282.66 15.23 286.58 10.44 286.58 C5.65 286.58 1.74 282.66 1.74 277.88 C1.74 273.09 5.65 269.18 10.44 269.18 ZM10.44 267.44 C4.7 267.44 0 272.13 0 277.88 C0 283.62 4.7 288.32 10.44 288.32 C16.18 288.32 20.88 283.62 20.88 277.88 C20.88 272.13 16.18 267.44 10.44 267.44 Z" class="st18"/></g></g><g id="shape5183-204" transform="translate(8.091,-6.96)"><title>Sheet.5183</title><path d="M0.35 287.27 C0.61 287.45 1.22 287.71 1.83 287.71 C3.04 287.71 3.39 286.92 3.39 286.4 C3.39 285.44 2.52 285.01 1.65 285.01 L1.13 285.01 L1.13 284.31 L1.65 284.31 C2.35 284.31 3.13 283.97 3.13 283.18 C3.13 282.66 2.78 282.14 1.91 282.14 C1.39 282.14 0.87 282.4 0.52 282.57 L0.26 281.88 C0.61 281.62 1.3 281.36 2 281.36 C3.31 281.36 3.91 282.14 3.91 283.01 C3.91 283.7 3.48 284.31 2.7 284.57 C3.57 284.75 4.18 285.36 4.18 286.31 C4.18 287.36 3.31 288.32 1.74 288.32 C0.96 288.32 0.35 288.05 0 287.88 L0.35 287.27 Z" class="st18"/></g></g><g id="shape5221-206" transform="translate(375.073,-140.594)"><title>Sheet.5221</title><rect width="82.638" height="63.563" x="0" y="224.753" class="st20"/></g><g id="group5223-208" transform="translate(429.807,-173.219)"><title>script.2103</title><g id="shape5224-209" transform="translate(3.25108,0)"><title>Sheet.5224</title><path d="M17.28 265.3 C17.28 262.31 19.59 261.02 19.59 261.02 L2.31 261.02 C2.31 261.02 0 262.31 0 265.3 C0 268.3 0 284.47 0 284.47 L11.55 284.47 C11.55 284.47 11.21 288.32 14.46 288.32 C17.71 288.32 17.37 284.64 17.37 284.64 C17.37 284.64 17.28 268.21 17.28 265.3 Z" class="st6"/></g><g id="shape5225-211"><title>Sheet.5225</title><path d="M12.83 286.43 L0 286.43 C0 286.43 0.94 288.32 2.74 288.32 C4.53 288.32 13.86 288.32 13.86 288.32 C13.26 288.06 12.83 286.86 12.83 286.43 Z" class="st7"/></g><g id="shape5226-213" transform="translate(21.9876,-21.5598)"><title>Sheet.5226</title><path d="M0.09 288.32 C0.09 288.32 0 287.12 0.09 286.43 C0.26 284.98 0.86 283.44 2.74 283.44 C4.79 283.44 3.59 288.32 0.09 288.32 Z" class="st7"/></g></g><g id="group5227-215" transform="translate(375.073,-173.219)"><title>Style sheet</title><g id="shape5227-216"><rect width="7.647" height="10.4" x="29.475" y="269.47" class="st21"/></g><g id="shape3-218" transform="translate(4.33396,0)"><title>Sheet.3</title><rect width="22.958" height="27.292" x="0" y="261.024" class="st3"/><switch><svg width="26.476" height="30.81" x="-1.759" y="259.265" clip="rect(1.75899 1.75901 1.75899 1.75901)" overflow="hidden" preserveAspectRatio="none" viewBox="0 0 22.48 26.16"><defs><path id="mfid112" d="M1.5,1.522 L1.5,24.646 L20.998,24.646 L20.998,6.387 C20.998,6.387 17.422,5.746 16.273,5.746 C16.248,4.945 16.265,5.006 16.156,1.521 L1.5,1.521 L1.5,1.522 Z"/></defs><g><g text-rendering="geometricPrecision"><g fill="#5a5a5a"><use fill-rule="evenodd" stroke="none" xlink:href="#mfid112"/><defs><path id="mfid113" d="M2,2.022 L2,24.146 L20.498,24.146 L20.498,6.247 C20.498,6.247 16.228,5.538 16.119,2.022 L2,2.022 Z"/></defs></g><g fill="#fff"><use fill-rule="evenodd" stroke="none" xlink:href="#mfid113"/></g></g></g><defs><path id="mfid114" d="M16.217,1.5 L15.824,1.5 L15.824,6.872 L20.971,6.872 L20.971,6.331 L16.217,1.5 Z"/></defs><mask id="mfid115"><use fill="#fff" fill-rule="evenodd" stroke="none" xlink:href="#mfid114"/></mask><mask id="mfid116" fill="#fff" stroke="none"><g><g mask="url(#mfid115)"><rect id="mfid117" width="22.48" height="26.16"/></g></g></mask><defs><path id="mfid118" d="M-0.010417,-0.010417 L0.064031,-0.010417 L0.064031,0.066375 L-0.010417,0.066375 Z"/></defs><radialGradient id="mfid119"><stop offset="0" stop-color="#c6c6c6"/><stop offset="1" stop-color="#606060"/></radialGradient><g mask="url(#mfid116)"><g text-rendering="geometricPrecision"><g><g fill="#fff" transform="matrix(96, 0, 0, -96, 15.824, 6.872)"><mask id="mfid120" width=".074" height=".077" x="-.01" y="-.01" maskUnits="userSpaceOnUse"><rect width=".074" height=".077" x="-.01" y="-.01" stroke="none"/></mask><use fill="url(#mfid119)" stroke="none" mask="url(#mfid120)" xlink:href="#mfid118"/><defs><path id="mfid121" d="M16.324,6.372 L20.307,6.372 L16.324,2.372 L16.324,6.372 Z"/></defs></g></g></g></g><g><g text-rendering="geometricPrecision"><g fill="#fff"><use fill-rule="evenodd" stroke="none" xlink:href="#mfid121"/></g></g></g><defs><path id="mfid122" d="M5.422,15.667 L16.565,15.667 L16.565,15.168 L5.422,15.168 L5.422,15.667 Z"/></defs><mask id="mfid123"><use fill="#fff" fill-rule="evenodd" stroke="none" xlink:href="#mfid122"/></mask><mask id="mfid124" fill="#fff" stroke="none"><g><g mask="url(#mfid123)"><use xlink:href="#mfid117"/></g></g></mask><linearGradient id="mfid125" x1="-.01" x2=".126" y1=".003" y2=".003" gradientTransform="matrix(1, -0, -0, 1, -0.0000000061423, 0.00000000011276)" gradientUnits="userSpaceOnUse" spreadMethod="repeat"><stop offset="0" stop-color="#9aaab7"/><stop offset="1" stop-color="#5084d1"/></linearGradient><g mask="url(#mfid124)"><g text-rendering="geometricPrecision"><g><g fill="url(#mfid125)" transform="matrix(96, 0, 0, -96, 5.422, 15.667)"><rect width=".137" height=".026" x="-.01" y="-.01" stroke="none"/></g></g></g></g><defs><path id="mfid126" d="M5.422,18.666 L16.565,18.666 L16.565,18.167 L5.422,18.167 L5.422,18.666 Z"/></defs><mask id="mfid127"><use fill="#fff" fill-rule="evenodd" stroke="none" xlink:href="#mfid126"/></mask><mask id="mfid128" fill="#fff" stroke="none"><g><g mask="url(#mfid127)"><use xlink:href="#mfid117"/></g></g></mask><linearGradient id="mfid129" x1="-.01" x2=".126" y1=".003" y2=".003" gradientTransform="matrix(1, -0, -0, 1, -0.0000000061423, 0.00000000011276)" gradientUnits="userSpaceOnUse" spreadMethod="repeat"><stop offset="0" stop-color="#9aaab7"/><stop offset="1" stop-color="#5084d1"/></linearGradient><g mask="url(#mfid128)"><g text-rendering="geometricPrecision"><g><g fill="url(#mfid129)" transform="matrix(96, 0, 0, -96, 5.422, 18.666)"><rect width=".137" height=".026" x="-.01" y="-.01" stroke="none"/></g></g></g></g><defs><path id="mfid130" d="M5.422,21.664 L16.565,21.664 L16.565,21.165 L5.422,21.165 L5.422,21.664 Z"/></defs><mask id="mfid131"><use fill="#fff" fill-rule="evenodd" stroke="none" xlink:href="#mfid130"/></mask><mask id="mfid132" fill="#fff" stroke="none"><g><g mask="url(#mfid131)"><use xlink:href="#mfid117"/></g></g></mask><linearGradient id="mfid133" x1="-.01" x2=".126" y1=".003" y2=".003" gradientTransform="matrix(1, -0, -0, 1, -0.0000000061423, 0.00000000011276)" gradientUnits="userSpaceOnUse" spreadMethod="repeat"><stop offset="0" stop-color="#9aaab7"/><stop offset="1" stop-color="#5084d1"/></linearGradient><g mask="url(#mfid132)"><g text-rendering="geometricPrecision"><g><g fill="url(#mfid133)" transform="matrix(96, 0, 0, -96, 5.422, 21.664)"><rect width=".137" height=".026" x="-.01" y="-.01" stroke="none"/><defs><path id="mfid134" d="M5.457,10.093 L9.645,7.936 L9.645,8.559 L6.115,10.331 L6.115,10.351 L9.644,12.111 L9.644,12.732 L5.456,10.582 L5.456,10.093 L5.457,10.093 Z"/></defs></g></g></g></g><g><g text-rendering="geometricPrecision"><g fill="#737a7f"><use fill-rule="evenodd" stroke="none" xlink:href="#mfid134"/><defs><path id="mfid135" d="M17.145,10.581 L12.957,12.731 L12.957,12.11 L16.486,10.35 L16.486,10.33 L12.957,8.559 L12.957,7.936 L17.145,10.093 L17.145,10.581 Z"/></defs><use fill-rule="evenodd" stroke="none" xlink:href="#mfid135"/></g></g></g></svg></switch><rect width="22.958" height="27.292" x="0" y="261.024" class="st3"/></g><g id="shape5228-221"><title>Sheet.5228</title><rect width="27.292" height="27.292" x="0" y="261.024" class="st22"/></g><g id="group5229-223" transform="translate(24.5628,-8.73343)"><title>Sheet.5229</title><g id="shape5230-224"><title>Sheet.5230</title><rect width="9.825" height="9.825" x="0" y="278.49" class="st23"/></g><g id="shape5231-226" transform="translate(0.529019,-0.528464)"><title>Sheet.5231</title><rect width="8.768" height="8.768" x="0" y="279.547" class="st24"/></g><g id="shape5232-234" transform="translate(1.80554,-4.38742)"><title>Sheet.5232</title><rect width="6.213" height="1.05" x="0" y="287.265" class="st25"/></g></g><g id="group5233-238" transform="translate(24.5628,-8.73343)"><title>Sheet.5233</title><g id="shape5234-239"><title>Sheet.5234</title><rect width="9.825" height="9.825" x="0" y="278.49" class="st23"/></g><g id="shape5235-241" transform="translate(0.529019,-0.52791)"><title>Sheet.5235</title><rect width="8.768" height="8.768" x="0" y="279.547" class="st24"/></g><g id="shape5236-244" transform="translate(4.38742,-1.80554)"><title>Sheet.5236</title><rect width="1.05" height="6.214" x="0" y="282.101" class="st26"/></g><g id="shape5237-246" transform="translate(1.80554,-4.38742)"><title>Sheet.5237</title><rect width="6.213" height="1.05" x="0" y="287.265" class="st26"/></g></g><g id="shape5238-248" transform="translate(-3.4115,3.4115)"><title>Sheet.5238</title></g></g><g id="group5239-252" transform="translate(400.679,-173.219)"><title>Graphic (bitmap)</title><g id="shape5239-253"><rect width="7.647" height="10.4" x="29.475" y="269.47" class="st21"/></g><g id="shape4-255" transform="translate(4.65328,0)"><title>Sheet.4</title><rect width="22.639" height="27.292" x="0" y="261.024" class="st3"/><switch><svg width="26.376" height="31.029" x="-1.869" y="259.155" clip="rect(1.86866 1.86876 1.86866 1.86876)" overflow="hidden" preserveAspectRatio="none" viewBox="0 0 21.08 24.8"><defs><path id="mfid136" d="M1.625,1.625 L1.625,6.081 C2.598,5.426 4.396,4.829 5.811,5.688 C8.7,7.443 7.707,8.287 7.707,8.287 C7.707,8.287 8.41,8.073 9.306,8.043 C9.432,6.472 10.733,5.23 12.34,5.23 C14.026,5.23 15.397,6.6 15.397,8.286 C15.397,8.741 15.292,9.168 15.114,9.556 C16.04,9.593 16.822,9.755 17.044,10.781 C17.183,11.418 13.343,11.385 12.151,11.865 C10.764,12.42 7.816,10.758 7.816,10.758 C7.816,10.758 4.926,12.123 2.538,11.473 C2.203,11.381 1.903,11.293 1.625,11.202 L1.625,23.17 L19.472,23.17 L19.472,1.625 L1.625,1.625 Z"/></defs><mask id="mfid137"><use fill="#fff" fill-rule="evenodd" stroke="none" xlink:href="#mfid136"/></mask><mask id="mfid138" fill="#fff" stroke="none"><g><g mask="url(#mfid137)"><rect id="mfid139" width="21.08" height="24.8"/></g></g></mask><defs><path id="mfid140" d="M-0.010417,-0.010417 L0.19632,-0.010417 L0.19632,0.23484 L-0.010417,0.23484 Z"/></defs><radialGradient id="mfid141"><stop offset="0" stop-color="#004ac0"/><stop offset="1" stop-color="#cfe8f2"/></radialGradient><g mask="url(#mfid138)"><g text-rendering="geometricPrecision"><g><g fill="#fff" transform="matrix(96, 0, 0, -96, 1.625, 23.17)"><mask id="mfid142" width=".207" height=".245" x="-.01" y="-.01" maskUnits="userSpaceOnUse"><rect width=".207" height=".245" x="-.01" y="-.01" stroke="none"/></mask><use fill="url(#mfid141)" stroke="none" mask="url(#mfid142)" xlink:href="#mfid140"/></g></g></g></g><defs><path id="mfid143" d="M9.305,8.043 C9.298,8.125 9.28,8.203 9.28,8.285 C9.28,9.974 10.648,11.344 12.339,11.344 C13.571,11.344 14.629,10.608 15.112,9.555 C14.076,9.513 12.859,9.627 12.038,8.872 C11.266,8.161 10.19,8.013 9.305,8.043 Z"/></defs><mask id="mfid144"><use fill="#fff" fill-rule="evenodd" stroke="none" xlink:href="#mfid143"/></mask><mask id="mfid145" fill="#fff" stroke="none"><g><g mask="url(#mfid144)"><use xlink:href="#mfid139"/></g></g></mask><defs><path id="mfid146" d="M0.18654,-0.010417 C0.18654,0.032712 0.13489,0.067674 0.071167,0.067674 C0.0074461,0.067674 -0.04421,0.032712 -0.04421,-0.010417 C-0.04421,-0.053545 0.0074461,-0.088508 0.071167,-0.088508 C0.13489,-0.088508 0.18654,-0.053545 0.18654,-0.010417 Z"/></defs><radialGradient id="mfid147"><stop offset="0" stop-color="#c95757"/><stop offset=".707" stop-color="#fff"/><stop offset="1" stop-color="#fff"/></radialGradient><g mask="url(#mfid145)"><g text-rendering="geometricPrecision"><g><g fill="#fff" transform="matrix(96, 0, 0, -96, 9.28, 11.344)"><mask id="mfid148" width=".082" height=".055" x="-.01" y="-.01" maskUnits="userSpaceOnUse"><rect width=".082" height=".055" x="-.01" y="-.01" stroke="none"/></mask><use fill="url(#mfid147)" stroke="none" mask="url(#mfid148)" xlink:href="#mfid146"/></g></g></g></g><defs><path id="mfid149" d="M12.339,5.229 C10.732,5.229 9.431,6.471 9.305,8.042 C10.191,8.012 11.266,8.16 12.038,8.871 C12.859,9.626 14.076,9.512 15.112,9.554 C15.29,9.166 15.395,8.74 15.395,8.284 C15.396,6.6 14.024,5.229 12.339,5.229 Z"/></defs><mask id="mfid150"><use fill="#fff" fill-rule="evenodd" stroke="none" xlink:href="#mfid149"/></mask><mask id="mfid151" fill="#fff" stroke="none"><g><g mask="url(#mfid150)"><use xlink:href="#mfid139"/></g></g></mask><defs><path id="mfid152" d="M0.19303,-0.0096667 C0.19303,0.041793 0.13967,0.083509 0.073854,0.083509 C0.0080346,0.083509 -0.045323,0.041793 -0.045323,-0.0096667 C-0.045323,-0.061126 0.0080346,-0.10284 0.073854,-0.10284 C0.13967,-0.10284 0.19303,-0.061126 0.19303,-0.0096667 Z"/></defs><radialGradient id="mfid153"><stop offset="0" stop-color="#c95757"/><stop offset=".707" stop-color="#fff"/><stop offset="1" stop-color="#fff"/></radialGradient><g mask="url(#mfid151)"><g text-rendering="geometricPrecision"><g><g fill="#fff" transform="matrix(96, 0, 0, -96, 9.305, 9.626)"><mask id="mfid154" width=".084" height=".066" x="-.01" y="-.01" maskUnits="userSpaceOnUse"><rect width=".084" height=".066" x="-.01" y="-.01" stroke="none"/></mask><use fill="url(#mfid153)" stroke="none" mask="url(#mfid154)" xlink:href="#mfid152"/><defs><path id="mfid155" d="M9.03,8.285 C9.03,10.109 10.514,11.594 12.339,11.594 C14.162,11.594 15.646,10.11 15.646,8.285 C15.646,7.403 15.301,6.573 14.676,5.948 C14.051,5.324 13.221,4.979 12.339,4.979 C10.515,4.979 9.03,6.463 9.03,8.285 Z M9.53,8.285 C9.53,6.738 10.79,5.479 12.339,5.479 C13.088,5.479 13.792,5.771 14.322,6.301 C14.853,6.831 15.145,7.536 15.145,8.284 C15.145,9.833 13.886,11.093 12.338,11.093 C10.79,11.094 9.53,9.834 9.53,8.285 Z"/></defs></g></g></g></g><g><g text-rendering="geometricPrecision"><g fill="#fc0"><use fill-rule="evenodd" stroke="none" xlink:href="#mfid155"/></g></g></g><defs><path id="mfid156" d="M13.824,14.768 C11.678,14.831 11.43,16.493 8.97,15.61 C6.507,14.727 4.116,16.274 4.116,16.274 C3.503,15.022 2.577,14.2 1.625,13.651 L1.625,19.737 L19.474,19.737 L19.474,17.36 C16.433,17.624 15.724,14.712 13.824,14.768 Z"/></defs><mask id="mfid157"><use fill="#fff" fill-rule="evenodd" stroke="none" xlink:href="#mfid156"/></mask><mask id="mfid158" fill="#fff" stroke="none"><g><g mask="url(#mfid157)"><use xlink:href="#mfid139"/></g></g></mask><linearGradient id="mfid159" x1="-.01" x2=".196" y1=".032" y2=".032" gradientTransform="matrix(-0.0000007207, 0.40738, -2.4547, -0.00000011057, 0.17077, -0.0061732)" gradientUnits="userSpaceOnUse" spreadMethod="repeat"><stop offset="0" stop-color="#1b4896"/><stop offset="1" stop-color="#b5dceb"/></linearGradient><g mask="url(#mfid158)"><g text-rendering="geometricPrecision"><g><g fill="url(#mfid159)" transform="matrix(96, 0, 0, -96, 1.625, 19.737)"><rect width=".207" height=".084" x="-.01" y="-.01" stroke="none"/><defs><path id="mfid160" d="M16.98,17.55 C16.98,17.55 14.59,16.003 12.127,16.887 C9.664,17.77 8.809,19.545 6.665,19.483 C4.766,19.427 4.664,18.901 1.624,18.637 L1.624,21.591 C4.664,21.856 4.766,22.381 6.665,22.437 C8.81,22.5 9.665,20.723 12.128,19.84 C14.591,18.957 16.981,20.504 16.981,20.504 C17.596,19.253 18.521,18.43 19.472,17.881 L19.472,14.926 C18.521,15.477 17.596,16.299 16.98,17.55 Z"/></defs></g></g></g></g><g><g text-rendering="geometricPrecision"><g fill="#499749"><use fill-rule="evenodd" stroke="none" xlink:href="#mfid160"/></g></g></g><defs><path id="mfid161" d="M16.98,20.504 C16.98,20.504 14.59,18.957 12.127,19.84 C9.664,20.723 8.81,22.5 6.666,22.437 C4.767,22.381 4.665,21.856 1.625,21.591 L1.625,23.17 L19.472,23.17 L19.472,17.881 C18.521,18.43 17.596,19.253 16.98,20.504 Z"/></defs><mask id="mfid162"><use fill="#fff" fill-rule="evenodd" stroke="none" xlink:href="#mfid161"/></mask><mask id="mfid163" fill="#fff" stroke="none"><g><g mask="url(#mfid162)"><use xlink:href="#mfid139"/></g></g></mask><linearGradient id="mfid164" x1="-.01" x2=".196" y1=".028" y2=".028" gradientUnits="userSpaceOnUse" spreadMethod="repeat"><stop offset="0" stop-color="#42bc33"/><stop offset="1" stop-color="#bde1a1"/></linearGradient><g mask="url(#mfid163)"><g text-rendering="geometricPrecision"><g><g fill="url(#mfid164)" transform="matrix(96, 0, 0, -96, 1.625, 23.17)"><rect width=".207" height=".076" x="-.01" y="-.01" stroke="none"/></g></g></g></g><defs><path id="mfid165" d="M7.816,10.758 C7.816,10.758 10.763,12.42 12.149,11.863 C13.34,11.384 17.18,11.416 17.042,10.779 C16.571,8.607 13.594,10.302 12.038,8.872 C10.483,7.442 7.706,8.287 7.706,8.287 C7.706,8.287 8.699,7.443 5.81,5.688 C4.396,4.829 2.598,5.426 1.625,6.081 L1.625,11.202 C1.903,11.293 2.203,11.381 2.538,11.473 C4.927,12.123 7.816,10.758 7.816,10.758 Z"/></defs><mask id="mfid166"><use fill="#fff" fill-rule="evenodd" stroke="none" xlink:href="#mfid165"/></mask><mask id="mfid167" fill="#fff" stroke="none"><g><g mask="url(#mfid166)"><use xlink:href="#mfid139"/></g></g></mask><linearGradient id="mfid168" x1="-.01" x2=".171" y1=".04" y2=".04" gradientTransform="matrix(-0.00000082133, 0.49929, -2.0028, -0.000000051406, 0.1595, -0.00054704)" gradientUnits="userSpaceOnUse" spreadMethod="repeat"><stop offset="0" stop-color="#23b3de"/><stop offset="1" stop-color="#fff"/></linearGradient><g mask="url(#mfid167)"><g text-rendering="geometricPrecision"><g><g fill="url(#mfid168)" transform="matrix(96, 0, 0, -96, 1.625, 12.42)"><rect width=".181" height=".091" x="-.01" y="-.006" stroke="none"/><defs><path id="mfid169" d="M1.625,1.625 L1.625,23.17 L19.472,23.17 L19.472,1.625 L1.625,1.625 Z M9.004,8.061 C8.995,8.062 8.986,8.062 8.978,8.063 C8.986,8.062 8.995,8.062 9.004,8.061 Z"/></defs></g></g></g></g><g><g text-rendering="geometricPrecision"><g fill="url(#mfid168)" stroke="#808284" stroke-miterlimit="2" stroke-width=".25"><use fill="none" xlink:href="#mfid169"/></g></g></g></svg></switch><rect width="22.639" height="27.292" x="0" y="261.024" class="st3"/></g><g id="shape5240-258"><title>Sheet.5240</title><rect width="27.292" height="27.292" x="0" y="261.024" class="st22"/></g><g id="group5241-260" transform="translate(24.5628,-8.73343)"><title>Sheet.5241</title><g id="shape5242-261"><title>Sheet.5242</title><rect width="9.825" height="9.825" x="0" y="278.49" class="st23"/></g><g id="shape5243-263" transform="translate(0.529019,-0.528464)"><title>Sheet.5243</title><rect width="8.768" height="8.768" x="0" y="279.547" class="st24"/></g><g id="shape5244-266" transform="translate(1.80554,-4.38742)"><title>Sheet.5244</title><rect width="6.213" height="1.05" x="0" y="287.265" class="st25"/></g></g><g id="group5245-269" transform="translate(24.5628,-8.73343)"><title>Sheet.5245</title><g id="shape5246-270"><title>Sheet.5246</title><rect width="9.825" height="9.825" x="0" y="278.49" class="st23"/></g><g id="shape5247-272" transform="translate(0.529019,-0.52791)"><title>Sheet.5247</title><rect width="8.768" height="8.768" x="0" y="279.547" class="st24"/></g><g id="shape5248-275" transform="translate(4.38742,-1.80554)"><title>Sheet.5248</title><rect width="1.05" height="6.214" x="0" y="282.101" class="st26"/></g><g id="shape5249-277" transform="translate(1.80554,-4.38742)"><title>Sheet.5249</title><rect width="6.213" height="1.05" x="0" y="287.265" class="st26"/></g></g><g id="shape5250-279" transform="translate(-3.4115,3.4115)"><title>Sheet.5250</title></g></g><g id="shape5251-282" transform="translate(64.573,-85.875)"><title>Sheet.5251</title><desc>Authenticated user navigates to SharePoint page containing pu...</desc><rect width="130.5" height="20" x="0" y="268.316" class="st3"/><text x="5.82" y="269.32" class="st19">Authenticated user navigates <tspan x="4.11" class="st5" dy="1.2em">to SharePoint page containing </tspan><tspan x="29.3" class="st5" dy="1.2em">public CDN assets</tspan></text></g><g id="group5252-287" transform="translate(154.573,-154.375)"><title>Com Blue - 4.5252</title><g id="shape5253-288" transform="translate(0.87,-0.87)"><title>Sheet.5253</title><path d="M9.57 288.32 C4.26 288.32 0 284.05 0 278.75 C0 273.44 4.26 269.18 9.57 269.18 C14.88 269.18 19.14 273.44 19.14 278.75 C19.14 284.05 14.88 288.32 9.57 288.32 Z" class="st17"/></g><g id="shape5254-290"><title>Sheet.5254</title><path d="M10.44 269.18 C15.23 269.18 19.14 273.09 19.14 277.88 C19.14 282.66 15.23 286.58 10.44 286.58 C5.66 286.58 1.74 282.66 1.74 277.88 C1.74 273.09 5.66 269.18 10.44 269.18 ZM10.44 267.44 C4.7 267.44 0 272.13 0 277.88 C0 283.62 4.7 288.32 10.44 288.32 C16.18 288.32 20.88 283.62 20.88 277.88 C20.88 272.13 16.18 267.44 10.44 267.44 Z" class="st18"/></g><g id="shape5255-292" transform="translate(7.917,-6.96)"><title>Sheet.5255</title><path d="M3.13 288.32 L3.13 286.49 L0 286.49 L0 285.88 L3.04 281.53 L4 281.53 L4 285.71 L4.96 285.71 L4.96 286.4 L4 286.4 L4 288.23 L3.13 288.23 L3.13 288.32 ZM3.13 285.71 L3.13 283.44 C3.13 283.1 3.13 282.75 3.13 282.4 C2.96 282.83 2.78 283.1 2.61 283.44 L0.96 285.79 L3.13 285.79 L3.13 285.71 Z" class="st18"/></g></g><g id="shape5256-294" transform="translate(170.935,-147.875)"><title>Sheet.5256</title><desc>SharePoint returns rewritten CDN URLs</desc><rect width="82.638" height="20" x="0" y="268.316" class="st3"/><text x="19.1" y="269.32" class="st19">SharePoint <tspan x="6.17" class="st5" dy="1.2em">returns rewritten </tspan><tspan x="21.24" class="st5" dy="1.2em">CDN URLs</tspan></text></g><g id="group5274-299" transform="translate(204.073,-64.1227)"><title>Extranet Site.5274</title><g id="group5275-300" transform="translate(0,-13.9626)"><title>Sheet.5275</title><g id="shape5276-301" transform="translate(0,-24.5608)"><title>Sheet.5276</title><rect width="47.608" height="6.729" x="0" y="281.587" class="st27"/></g><g id="shape5277-303" transform="translate(15.8131,0)"><title>Sheet.5277</title><path d="M7.91 272.5 C3.53 272.5 0 276.04 0 280.41 C-0 284.78 3.53 288.32 7.91 288.32 C12.28 288.32 15.81 284.78 15.81 280.41 C15.81 276.04 12.28 272.5 7.91 272.5 ZM13.63 281.92 C13.63 281.75 13.63 281.75 13.46 281.59 C13.46 281.42 13.29 281.25 13.12 281.08 C13.12 281.08 13.12 280.91 13.12 280.91 C13.12 280.91 13.12 280.75 13.12 280.75 C13.12 280.75 13.12 280.58 13.12 280.58 C13.12 280.58 13.12 280.41 13.12 280.41 C12.95 280.41 12.79 280.41 12.62 280.24 C12.45 280.24 12.28 280.07 12.28 280.07 C12.28 280.07 12.11 280.07 12.11 280.07 C12.11 280.07 11.94 280.07 11.94 280.07 C11.94 280.07 11.78 280.07 11.78 280.07 C11.78 280.07 11.61 280.07 11.61 280.07 L11.44 280.07 C11.44 280.07 11.27 280.07 11.27 280.07 C11.1 280.07 11.1 280.07 11.1 280.07 C11.1 280.07 10.93 280.07 10.93 280.07 C10.77 280.07 10.77 280.07 10.6 279.9 C10.43 279.9 10.43 279.74 10.26 279.74 C10.26 279.74 10.09 279.57 10.09 279.57 C10.09 279.57 10.09 279.57 9.93 279.4 C9.93 279.4 9.93 279.4 9.76 279.4 C9.76 279.4 9.76 279.4 9.59 279.23 C9.42 279.06 9.59 279.23 9.59 279.06 L9.76 279.06 L9.59 279.06 L9.59 278.89 C9.59 278.89 9.59 278.89 9.59 278.89 C9.59 278.89 9.59 278.89 9.59 278.89 L9.25 278.73 L9.42 278.22 C9.42 277.89 9.25 277.72 9.42 277.55 C9.42 277.38 9.59 277.21 9.59 277.21 C9.76 277.04 9.76 277.04 9.93 276.88 C10.09 276.71 10.26 276.71 10.26 276.54 L10.26 276.37 L10.77 275.7 L10.93 275.7 C11.1 275.7 11.27 275.7 11.44 275.7 C11.61 275.7 11.78 275.7 11.94 275.7 C12.11 275.7 12.28 275.7 12.45 275.7 C12.62 275.7 12.79 275.7 12.95 275.53 C13.96 276.71 14.64 278.39 14.64 280.07 C14.64 281.42 14.3 282.76 13.46 283.77 C13.46 283.61 13.29 283.44 13.29 283.27 C13.29 283.1 13.12 282.93 13.12 282.76 C13.12 282.6 13.12 282.43 13.12 282.26 C13.12 282.09 13.12 282.09 13.12 281.92 C13.12 281.92 13.12 281.75 13.12 281.75 C13.63 282.09 13.63 282.09 13.63 281.92 ZM6.73 286.13 C6.73 286.3 6.73 286.47 6.56 286.47 C6.56 286.63 6.39 286.8 6.39 286.8 C6.39 286.97 6.22 286.97 6.22 287.14 C5.55 286.97 5.05 286.8 4.54 286.47 C4.54 286.3 4.54 286.3 4.54 286.13 C4.54 285.96 4.54 285.96 4.54 285.79 C4.54 285.62 4.54 285.62 4.71 285.46 C4.71 285.29 4.71 285.29 4.71 285.12 C4.71 284.95 4.71 284.78 4.71 284.61 C4.71 284.45 4.54 284.28 4.54 284.11 C4.54 283.94 4.37 283.77 4.37 283.61 C4.37 283.44 4.21 283.27 4.21 283.1 C4.21 282.93 4.04 282.76 4.04 282.6 C4.04 282.43 4.04 282.26 4.04 282.26 L3.87 282.26 C3.87 282.26 3.87 282.09 4.04 282.09 C4.04 282.09 4.21 281.92 4.21 281.92 C4.21 281.92 4.37 281.75 4.37 281.75 C4.37 281.75 4.37 281.59 4.37 281.59 C4.37 281.59 4.37 281.42 4.37 281.42 C4.37 281.42 4.37 281.25 4.37 281.25 L4.54 281.25 C4.71 281.08 4.71 280.91 4.88 280.75 C5.05 280.75 5.21 280.58 5.38 280.58 C5.38 280.58 5.38 280.58 5.55 280.58 C5.55 280.58 5.72 280.58 5.89 280.58 C6.06 280.58 6.06 280.58 6.22 280.75 C6.39 280.75 6.39 280.75 6.39 280.75 C6.39 280.75 6.39 280.75 6.39 280.75 C6.39 280.75 6.39 280.75 6.39 280.75 C6.39 280.75 6.39 280.75 6.56 280.75 C6.56 280.75 6.73 280.75 6.73 280.91 C6.73 280.91 6.9 281.08 6.9 281.08 C6.9 281.08 7.07 281.08 7.07 281.25 C7.23 281.25 7.23 281.25 7.4 281.42 C7.57 281.42 7.74 281.59 7.91 281.59 C8.07 281.75 8.24 281.75 8.41 281.92 C8.58 282.09 8.75 282.26 8.92 282.26 C9.08 282.43 9.25 282.6 9.25 282.6 C9.42 282.76 9.42 282.76 9.42 282.93 L9.08 283.27 C9.08 283.61 9.08 283.77 9.08 283.94 C9.08 284.11 8.92 284.28 8.75 284.28 C8.58 284.45 8.41 284.45 8.41 284.45 C8.24 284.45 8.07 284.61 7.91 284.78 C7.91 284.95 7.91 284.95 7.91 285.12 C7.91 285.29 7.74 285.29 7.74 285.46 C7.74 285.62 7.57 285.62 7.4 285.79 C7.23 285.79 7.23 285.96 7.07 285.96 L6.73 285.79 C6.73 285.79 6.73 285.79 6.73 285.79 C6.73 285.79 6.73 285.79 6.73 285.79 C6.73 285.79 6.73 285.96 6.73 286.13 ZM3.2 280.75 C3.2 280.91 3.2 280.91 3.2 280.75 L2.86 280.24 C2.69 280.24 2.52 280.24 2.36 280.24 C2.19 280.24 2.02 280.07 1.85 280.07 C1.68 280.07 1.51 279.9 1.35 279.74 C1.18 279.74 1.01 279.57 1.01 279.4 C1.18 277.72 2.02 276.2 3.2 275.19 C3.36 275.19 3.36 275.19 3.36 275.36 C3.36 275.36 3.53 275.53 3.53 275.53 C3.53 275.53 3.7 275.7 3.7 275.7 C3.7 275.7 3.87 275.87 4.04 275.87 L4.21 275.7 L4.21 275.53 L4.54 275.19 L4.37 274.69 C4.37 274.69 4.37 274.69 4.54 274.69 C4.54 274.69 4.71 274.69 4.71 274.69 C4.88 274.69 5.05 274.69 5.05 274.69 C5.21 274.69 5.21 274.69 5.21 274.86 C5.21 274.86 5.38 275.03 5.38 275.03 C5.38 275.03 5.55 275.19 5.55 275.36 L5.89 275.19 C5.89 275.19 6.06 275.19 6.22 275.36 C6.39 275.36 6.39 275.53 6.56 275.53 C6.73 275.53 6.73 275.7 6.9 275.7 C7.07 275.7 7.07 275.87 7.07 275.87 C7.07 275.87 7.07 276.04 6.9 276.04 C6.9 276.04 6.73 276.2 6.73 276.2 C6.56 276.2 6.56 276.2 6.39 276.2 C6.22 276.2 6.22 276.2 6.06 276.2 C5.89 276.2 5.89 276.2 5.89 276.2 C5.89 276.2 5.72 276.2 5.72 276.37 L6.22 276.54 C6.06 276.71 6.06 276.71 5.89 276.71 C5.72 276.71 5.72 276.88 5.55 276.88 L5.55 277.04 L4.88 277.38 L4.88 277.55 L4.88 277.21 C4.88 277.21 4.88 277.21 4.88 277.21 C4.88 277.21 4.88 277.21 4.88 277.21 C4.88 277.21 4.88 277.21 4.88 277.21 C4.88 277.21 4.88 277.21 4.88 277.21 L4.71 277.21 C4.71 277.21 4.71 277.21 4.71 277.21 C4.71 277.21 4.71 277.21 4.71 277.38 C4.71 277.38 4.71 277.38 4.88 277.55 C4.88 277.55 4.88 277.55 4.88 277.55 C4.88 277.55 4.88 277.55 4.88 277.55 C4.88 277.55 4.88 277.55 4.88 277.55 C4.88 277.55 4.88 277.55 4.88 277.55 C4.88 277.55 5.05 277.55 4.88 277.55 C4.88 277.55 4.71 277.55 4.71 277.55 C4.71 277.55 4.54 277.72 4.54 277.72 C4.54 277.72 4.37 277.89 4.37 278.05 C4.37 278.22 4.37 278.22 4.37 278.39 C4.37 278.56 4.37 278.56 4.37 278.73 C4.37 278.56 4.21 278.39 4.04 278.22 C3.87 278.05 3.7 278.05 3.53 278.05 L3.2 278.05 L3.36 278.22 C3.2 278.22 3.2 278.22 3.03 278.22 C2.86 278.22 2.86 278.22 2.69 278.22 C2.52 278.22 2.52 278.22 2.36 278.22 C2.19 278.22 2.19 278.39 2.19 278.39 L2.19 278.73 C2.19 278.89 2.19 279.06 2.36 279.06 C2.36 279.23 2.52 279.23 2.69 279.23 C2.86 279.23 3.03 279.23 3.2 279.23 C3.36 279.23 3.53 279.06 3.7 279.06 C3.7 279.23 3.53 279.23 3.53 279.4 C3.53 279.57 3.36 279.57 3.36 279.74 L3.53 279.74 C3.7 279.74 3.7 279.57 3.87 279.74 C4.04 279.74 4.04 279.9 4.21 279.9 C4.37 280.07 4.37 280.07 4.54 280.24 C4.71 280.41 4.71 280.41 4.88 280.41 L4.54 280.58 L3.2 280.75 C3.2 280.75 3.2 280.75 3.2 280.75 ZM10.93 274.35 C10.77 274.35 10.6 274.18 10.43 274.18 L10.77 274.18 C11.27 274.35 11.61 274.69 11.94 274.86 C11.94 274.86 11.78 274.86 11.78 274.86 C11.61 274.86 11.61 275.03 11.61 275.03 C11.61 275.03 11.44 275.19 11.44 275.19 C11.44 275.19 11.44 275.36 11.44 275.36 L11.44 275.53 C11.27 275.7 11.27 275.7 11.1 275.87 C10.93 275.87 10.93 275.87 10.77 275.87 C10.6 275.87 10.6 275.87 10.43 275.87 C10.26 275.87 10.09 275.87 10.09 275.87 L9.93 275.53 L10.09 275.03 L9.93 274.86 L11.27 274.35 C11.27 274.52 11.1 274.35 10.93 274.35 Z" class="st28"/></g></g><g id="shape5278-305" transform="translate(36.5047,-12.9533)"><title>Sheet.5278</title><path d="M0 288.32 L2.86 288.32 L2.86 284.11 C2.86 283.27 3.03 282.6 3.36 281.75 C3.7 281.08 4.04 280.41 4.54 279.9 C5.05 279.4 5.72 278.89 6.39 278.56 C7.07 278.22 7.91 278.05 8.75 278.05 C9.59 278.05 10.26 278.22 11.1 278.56 C11.78 278.89 12.45 279.23 12.95 279.9 C13.46 280.41 13.96 281.08 14.13 281.75 C14.47 282.43 14.64 283.27 14.64 284.11 L14.64 288.32 L17.5 288.32 L0 288.32 ZM4.21 288.32 L12.95 288.32 L12.95 284.11 C12.95 283.44 12.79 282.93 12.62 282.43 C12.45 281.92 12.11 281.42 11.78 281.08 C11.44 280.75 10.93 280.41 10.43 280.07 C9.93 279.9 9.25 279.74 8.75 279.74 C8.07 279.74 7.57 279.9 7.07 280.07 C6.56 280.24 6.06 280.58 5.72 281.08 C5.38 281.42 5.05 281.92 4.88 282.43 C4.71 282.93 4.54 283.61 4.54 284.11 L4.54 288.32 L4.21 288.32 Z" class="st29"/><path d="M0 288.32 L2.86 288.32 L2.86 284.11 C2.86 283.27 3.03 282.6 3.36 281.75 C3.7 281.08 4.04 280.41 4.54 279.9 C5.05 279.4 5.72 278.89 6.39 278.56 C7.07 278.22 7.91 278.05 8.75 278.05 C9.59 278.05 10.26 278.22 11.1 278.56 C11.78 278.89 12.45 279.23 12.95 279.9 C13.46 280.41 13.96 281.08 14.13 281.75 C14.47 282.43 14.64 283.27 14.64 284.11 L14.64 288.32 L17.5 288.32M4.21 288.32 L12.95 288.32 L12.95 284.11 C12.95 283.44 12.79 282.93 12.62 282.43 C12.45 281.92 12.11 281.42 11.78 281.08 C11.44 280.75 10.93 280.41 10.43 280.07 C9.93 279.9 9.25 279.74 8.75 279.74 C8.07 279.74 7.57 279.9 7.07 280.07 C6.56 280.24 6.06 280.58 5.72 281.08 C5.38 281.42 5.05 281.92 4.88 282.43 C4.71 282.93 4.54 283.61 4.54 284.11 L4.54 288.32 L4.21 288.32" class="st30"/></g><g id="shape5279-308" transform="translate(36.5047,2.84217E-13)"><title>Sheet.5279</title><rect width="17.327" height="12.953" x="0" y="275.362" class="st2"/></g><g id="shape5280-310" transform="translate(2.67786E-13,-7.73832)"><title>Sheet.5280</title><path d="M0 261.06 L0 288.32 L33.98 288.32 L33.98 280.75 L37.18 280.75 C37.01 267.62 47.78 270.82 47.78 270.82 L47.78 261.06 L0 261.06 ZM23.72 284.11 C18.17 284.11 13.79 279.74 13.79 274.18 C13.79 268.63 18.17 264.26 23.72 264.26 C29.27 264.26 33.64 268.63 33.64 274.18 C33.64 279.57 29.1 284.11 23.72 284.11 Z" class="st6"/></g></g><g id="shape5281-312" transform="translate(375.636,-140.695)"><title>Sheet.5281</title><desc>Public assets: Site images, CSS, scripts</desc><rect width="81.513" height="31.68" x="0" y="256.636" class="st3"/><text x="15.75" y="264.38" class="st31">Public assets:<tspan x="10.19" class="st32" dy="1.2em">Site images, CSS, </tspan><tspan x="28.86" class="st32" dy="1.2em">scripts</tspan></text></g></g></svg>